<?xml version="1.0" encoding="UTF-8"?>
<svg id="Layer_2" data-name="Layer 2" xmlns="http://www.w3.org/2000/svg" viewBox="0 0 598.81 598.81">
  <defs>
    <style>
      .cls-1 {
        fill: #f7921e;
      }

      .cls-2 {
        fill: #f6b918;
      }

      .cls-3 {
        fill: #fff;
      }

      .cls-4 {
        fill: #405a70;
      }

      .cls-5 {
        fill: #1899b5;
      }
    </style>
  </defs>
  <g id="Layer_1-2" data-name="Layer 1">
    <g>
      <g>
        <path class="cls-4" d="m299.41,0H0v299.4c0,165.36,134.05,299.4,299.41,299.4s299.4-134.04,299.4-299.4S464.76,0,299.41,0"/>
        <path class="cls-2" d="m89.06,91.04H12.34c-.79,0-1.43-.65-1.43-1.43V13.99c0-.79.65-1.43,1.43-1.43h76.72c.79,0,1.43.65,1.43,1.43v75.62c0,.79-.65,1.43-1.43,1.43"/>
        <path class="cls-3" d="m80.52,82.99H22.92c-.44,0-.79-.36-.79-.79V22.4c0-.44.36-.79.79-.79h57.6c.44,0,.79.36.79.79v59.8c0,.44-.36.79-.79.79"/>
      </g>
      <rect class="cls-2" x="30.85" y="46.55" width="19.13" height="7.8"/>
      <rect class="cls-2" x="30.42" y="57.83" width="23.62" height="5.9"/>
      <rect class="cls-2" x="30.42" y="67.52" width="21.3" height="5.69"/>
      <polygon class="cls-2" points="71.04 73.43 65.16 67.84 59.81 73.43 59.81 33.48 71.04 33.48 71.04 73.43"/>
      <g>
        <path class="cls-1" d="m580.76,300.53c0,154.38-125.16,279.53-279.56,279.53S21.63,454.91,21.63,300.53,146.8,21,301.2,21s279.56,125.15,279.56,279.53"/>
        <path class="cls-3" d="m580.76,300.53h-1.98c0,76.65-31.07,146.02-81.3,196.26-50.24,50.23-119.62,81.29-196.28,81.29-76.66,0-146.04-31.06-196.28-81.29-50.24-50.23-81.3-119.61-81.3-196.26,0-76.65,31.07-146.03,81.3-196.26,50.24-50.23,119.62-81.29,196.28-81.29,76.66,0,146.04,31.06,196.28,81.29,50.24,50.23,81.3,119.61,81.3,196.26h3.96c0-155.48-126.05-281.51-281.54-281.51-155.49,0-281.54,126.04-281.54,281.51,0,155.48,126.05,281.51,281.54,281.51,155.49,0,281.54-126.04,281.54-281.51h-1.98Z"/>
        <path class="cls-3" d="m534.47,299.17c0,129.77-105.21,234.97-234.99,234.97s-234.99-105.2-234.99-234.97,105.21-234.97,234.99-234.97,234.99,105.2,234.99,234.97"/>
      </g>
      <path class="cls-3" d="m39.07,243.97l1.89-7.67c.26-1.07.61-2.06,1.04-2.96.43-.9.97-1.65,1.62-2.25.65-.59,1.43-1,2.34-1.22.91-.22,1.97-.18,3.2.12,1.2.3,2.17.74,2.89,1.33s1.24,1.29,1.56,2.09c.32.8.46,1.69.44,2.68-.03.98-.17,2.02-.44,3.11l-.82,3.33,8.04,1.98-1.12,4.55-20.62-5.09Zm9.86-2.39l.75-3.03c.1-.41.16-.81.17-1.21.02-.4-.03-.77-.14-1.12-.11-.35-.3-.65-.58-.92-.27-.26-.66-.46-1.14-.58-.52-.13-.98-.11-1.36.05-.38.17-.7.42-.97.75-.27.34-.48.73-.65,1.19-.16.46-.3.9-.4,1.32l-.57,2.33,4.89,1.21Z"/>
      <path class="cls-3" d="m44.21,224.13l2.55-7.83c.33-1.03.75-1.97,1.25-2.83.5-.86,1.1-1.56,1.79-2.1.69-.54,1.5-.89,2.42-1.04.92-.15,1.97-.04,3.15.35,1.43.47,2.52,1.23,3.27,2.3.76,1.07,1.04,2.36.84,3.88l10.2-2.36-1.74,5.34-9.45,1.59-.71,2.2,8.07,2.63-1.45,4.46-20.2-6.59Zm9.81-1.73l.85-2.63c.13-.4.25-.83.37-1.29.12-.46.16-.89.14-1.3-.02-.41-.15-.78-.38-1.12-.23-.34-.62-.59-1.17-.78-.51-.17-.96-.2-1.33-.09-.37.11-.69.3-.96.57-.27.27-.5.61-.69,1.01-.19.4-.35.8-.48,1.2l-.95,2.91,4.59,1.5Z"/>
      <path class="cls-3" d="m60.2,209.07c-1.56-.68-2.85-1.56-3.89-2.64-1.04-1.08-1.79-2.28-2.28-3.6-.48-1.32-.68-2.73-.59-4.23.08-1.49.46-3,1.12-4.52.67-1.52,1.52-2.82,2.55-3.9,1.04-1.08,2.21-1.89,3.5-2.44,1.3-.55,2.69-.8,4.19-.77,1.49.03,3.02.39,4.58,1.07s2.85,1.56,3.89,2.64c1.04,1.08,1.79,2.28,2.27,3.6.48,1.33.68,2.73.59,4.23s-.46,3-1.12,4.52-1.52,2.82-2.55,3.9-2.2,1.89-3.5,2.43c-1.3.55-2.69.81-4.18.77s-3.02-.39-4.58-1.07Zm1.95-4.46c.92.4,1.82.63,2.7.67.89.05,1.72-.07,2.52-.36.79-.29,1.5-.74,2.14-1.34.64-.61,1.15-1.37,1.55-2.29s.61-1.82.62-2.7c.01-.88-.14-1.71-.47-2.48-.33-.78-.81-1.47-1.45-2.09-.63-.62-1.41-1.13-2.33-1.53-.9-.39-1.79-.62-2.69-.67-.89-.05-1.74.06-2.53.35-.79.29-1.5.73-2.14,1.34-.64.61-1.15,1.37-1.55,2.29s-.61,1.82-.62,2.7c-.01.88.14,1.71.47,2.48.33.78.81,1.48,1.46,2.1.65.62,1.42,1.13,2.31,1.52Z"/>
      <path class="cls-3" d="m62.07,179.14l6.79-12.55,3.8,2.06-4.56,8.43,3.8,2.06,4.21-7.79,3.8,2.06-4.21,7.79,7.28,3.95-2.23,4.12-18.68-10.13Z"/>
      <path class="cls-3" d="m71.37,162.25l7.76-12.18,3.64,2.33-5.25,8.23,3.34,2.13,4.96-7.77,3.64,2.33-4.96,7.77,3.64,2.33,5.54-8.68,3.64,2.33-8.06,12.63-17.9-11.44Z"/>
      <path class="cls-3" d="m92.85,139.82c-.61.02-1.2.22-1.78.6-.57.38-1.03.81-1.38,1.28-.2.27-.38.58-.53.92-.15.34-.25.69-.31,1.04-.05.36-.03.7.08,1.03.1.33.32.61.64.85.51.38,1.05.48,1.61.3.56-.18,1.15-.5,1.78-.94s1.29-.93,1.98-1.46c.69-.53,1.43-.96,2.22-1.28s1.62-.46,2.5-.4c.88.06,1.82.46,2.81,1.2.95.71,1.64,1.5,2.08,2.38.44.88.67,1.79.69,2.74.02.95-.16,1.91-.52,2.87-.37.96-.88,1.89-1.54,2.77-.82,1.11-1.76,2.01-2.8,2.71-1.04.7-2.24,1.17-3.61,1.43l-.95-4.86c.8,0,1.56-.19,2.27-.57.72-.38,1.31-.88,1.77-1.51.23-.3.42-.64.58-1.01.16-.37.26-.73.3-1.09.04-.36,0-.69-.1-1.01-.11-.32-.32-.59-.62-.82-.51-.38-1.06-.49-1.65-.32-.59.17-1.21.48-1.86.92-.65.44-1.34.93-2.06,1.46-.72.54-1.48.97-2.28,1.3-.79.33-1.63.48-2.5.44-.87-.04-1.78-.41-2.73-1.11-.91-.68-1.58-1.46-2-2.34s-.64-1.79-.66-2.74c-.02-.95.15-1.9.5-2.86.35-.96.84-1.86,1.46-2.7.72-.96,1.54-1.79,2.49-2.49.94-.7,2-1.17,3.18-1.41l.9,4.68Z"/>
      <path class="cls-3" d="m104.48,125.68c-.61-.02-1.22.13-1.82.48-.6.34-1.09.73-1.47,1.17-.22.26-.42.55-.59.88-.17.33-.3.67-.38,1.02-.08.35-.08.7,0,1.03.08.34.27.63.58.89.49.42,1.01.56,1.58.42.57-.14,1.18-.41,1.84-.81.66-.4,1.35-.84,2.08-1.32.73-.48,1.5-.85,2.31-1.12s1.65-.34,2.53-.22c.88.12,1.78.58,2.72,1.4.89.77,1.53,1.61,1.91,2.52.38.91.54,1.84.49,2.79-.05.95-.29,1.89-.73,2.82-.43.93-1.01,1.82-1.73,2.65-.9,1.05-1.9,1.88-2.98,2.5s-2.32,1.01-3.7,1.17l-.6-4.92c.8.05,1.57-.08,2.31-.41.74-.33,1.37-.78,1.88-1.38.25-.29.47-.61.65-.96.19-.35.31-.71.38-1.06.07-.35.05-.69-.03-1.02-.09-.33-.28-.61-.57-.86-.48-.42-1.03-.56-1.63-.43-.6.13-1.24.39-1.92.78-.68.39-1.4.83-2.16,1.31-.76.48-1.54.86-2.36,1.13-.82.27-1.66.36-2.52.26-.87-.1-1.74-.53-2.64-1.3-.86-.75-1.47-1.57-1.83-2.47-.36-.9-.51-1.83-.46-2.78.05-.95.28-1.89.71-2.82.42-.93.97-1.79,1.65-2.58.78-.91,1.67-1.68,2.66-2.31.99-.63,2.08-1.02,3.27-1.18l.56,4.73Z"/>
      <path class="cls-3" d="m105.74,116.52l3.22-3.4,15.41,14.63-3.22,3.4-15.41-14.63Z"/>
      <path class="cls-3" d="m119.09,117.49c-1.15-1.26-1.97-2.59-2.48-3.99-.51-1.41-.72-2.81-.62-4.22.1-1.4.49-2.77,1.17-4.1.68-1.33,1.64-2.56,2.86-3.68,1.23-1.12,2.53-1.96,3.92-2.52,1.38-.56,2.78-.83,4.19-.8,1.41.03,2.79.36,4.14,1s2.6,1.58,3.75,2.84c1.15,1.26,1.98,2.59,2.49,3.99.51,1.41.72,2.81.62,4.22-.1,1.41-.49,2.77-1.17,4.1s-1.64,2.56-2.86,3.68c-1.23,1.12-2.53,1.96-3.91,2.52s-2.78.83-4.19.8c-1.41-.03-2.79-.36-4.14-1-1.35-.63-2.6-1.58-3.75-2.84Zm3.59-3.28c.67.74,1.41,1.31,2.2,1.71.79.41,1.6.64,2.44.7.84.06,1.67-.06,2.5-.36.83-.29,1.61-.78,2.35-1.46.74-.67,1.29-1.41,1.66-2.21.37-.8.56-1.62.58-2.46.02-.84-.14-1.68-.47-2.5-.33-.82-.83-1.6-1.51-2.34-.66-.72-1.39-1.29-2.18-1.7-.8-.41-1.61-.65-2.45-.71-.84-.06-1.67.06-2.5.35-.83.3-1.61.78-2.35,1.46-.74.68-1.29,1.41-1.66,2.21-.37.8-.56,1.62-.58,2.46-.02.84.14,1.68.48,2.51.34.83.84,1.61,1.5,2.33Z"/>
      <path class="cls-3" d="m132.99,90.78l5.08-3.83,16.09,6.38.05-.04-8.87-11.82,3.74-2.82,12.76,17-4.89,3.68-16.49-6.53-.05.04,9.08,12.1-3.74,2.82-12.76-17Z"/>
      <path class="cls-3" d="m160.3,71.47l3.3-2.02,18.95,13.34-4.51,2.75-3.91-2.89-7.04,4.3.83,4.77-4.41,2.69-3.22-22.94Zm4.75,4.34l1.23,6.99,4.43-2.71-5.66-4.28Z"/>
      <path class="cls-3" d="m174.84,62.94l4.16-2.14,7.73,15.07,7.71-3.96,1.97,3.85-11.88,6.11-9.7-18.92Z"/>
      <path class="cls-3" d="m211.08,52.2c-.53-.31-1.13-.46-1.82-.45-.69.02-1.3.13-1.85.33-.32.12-.63.28-.94.49-.31.2-.58.44-.82.71-.24.27-.4.58-.49.91-.09.33-.06.69.08,1.06.23.6.62.97,1.2,1.12.57.15,1.24.2,2,.17.77-.04,1.59-.09,2.46-.16.87-.07,1.73-.04,2.56.12s1.61.49,2.33,1.01c.71.52,1.29,1.36,1.73,2.52.42,1.11.58,2.15.48,3.13-.1.98-.4,1.88-.89,2.68-.5.81-1.16,1.52-1.98,2.14-.83.61-1.75,1.12-2.78,1.51-1.29.49-2.56.75-3.81.77-1.25.03-2.52-.22-3.81-.74l1.81-4.61c.68.43,1.42.68,2.22.75.81.07,1.57-.04,2.3-.31.36-.13.7-.31,1.03-.54.33-.22.61-.47.84-.75.23-.28.38-.58.46-.91.08-.33.05-.67-.08-1.03-.23-.6-.64-.99-1.22-1.16-.59-.17-1.28-.25-2.06-.23-.78.02-1.62.06-2.52.12-.9.06-1.77.02-2.62-.13-.85-.15-1.63-.47-2.34-.97s-1.28-1.3-1.7-2.41c-.41-1.07-.55-2.08-.43-3.05.12-.96.42-1.85.92-2.66s1.15-1.52,1.96-2.14c.81-.62,1.71-1.11,2.68-1.48,1.12-.43,2.27-.68,3.43-.76,1.17-.08,2.31.1,3.44.52l-1.75,4.43Z"/>
      <path class="cls-3" d="m232.08,45.94c-.6-.41-1.26-.66-1.99-.76-.73-.1-1.51-.02-2.36.23s-1.58.64-2.2,1.18c-.62.54-1.11,1.18-1.46,1.92-.35.74-.56,1.56-.62,2.45-.06.9.05,1.81.33,2.75.28.96.69,1.79,1.22,2.5.53.71,1.14,1.28,1.83,1.71.69.43,1.43.71,2.23.83.8.12,1.6.06,2.4-.18.92-.27,1.68-.71,2.28-1.3.6-.59,1.02-1.31,1.28-2.13l4.56,1.69c-.5,1.46-1.33,2.68-2.49,3.65-1.15.97-2.43,1.66-3.83,2.07-1.59.47-3.13.66-4.62.56-1.49-.1-2.86-.47-4.11-1.12s-2.35-1.54-3.29-2.71c-.94-1.16-1.65-2.56-2.13-4.19-.48-1.63-.65-3.19-.49-4.68s.58-2.84,1.29-4.06c.7-1.22,1.65-2.28,2.85-3.18,1.2-.9,2.59-1.58,4.18-2.05.58-.17,1.19-.29,1.84-.37.65-.08,1.32-.09,1.99-.04.67.05,1.34.19,2.01.41.67.22,1.31.54,1.91.97l-2.62,3.85Z"/>
      <path class="cls-3" d="m238.49,38.58l8.04-1.73c1.05-.23,2.08-.34,3.07-.34.99,0,1.9.17,2.71.49.82.32,1.52.85,2.12,1.57.59.72,1.02,1.69,1.28,2.9.32,1.47.2,2.8-.34,3.99-.54,1.19-1.52,2.08-2.92,2.67l7.16,7.64-5.48,1.18-6.12-7.38-2.26.49,1.78,8.31-4.58.98-4.46-20.79Zm6.42,7.62l2.7-.58c.41-.09.84-.2,1.29-.33.45-.13.85-.31,1.19-.53.34-.23.6-.52.78-.89.18-.36.21-.83.08-1.4-.11-.53-.31-.93-.59-1.19-.28-.27-.61-.45-.97-.54-.37-.09-.77-.12-1.22-.09-.44.03-.87.09-1.28.18l-2.99.64,1.01,4.73Z"/>
      <path class="cls-3" d="m278.78,45.11c.15,1.25.11,2.43-.14,3.53s-.7,2.08-1.35,2.95-1.5,1.59-2.56,2.16c-1.06.57-2.31.95-3.76,1.13-1.47.18-2.79.12-3.95-.18-1.17-.3-2.17-.79-3.01-1.48-.84-.68-1.51-1.53-2.02-2.54-.51-1.01-.84-2.14-.99-3.39l-1.59-12.97,4.65-.57,1.57,12.79c.08.66.26,1.25.54,1.78.28.53.63.98,1.06,1.34.43.36.92.62,1.47.79s1.14.21,1.75.13,1.17-.26,1.65-.55c.49-.29.9-.66,1.22-1.12.33-.45.56-.97.7-1.55.14-.58.17-1.2.09-1.86l-1.57-12.79,4.64-.57,1.59,12.97Z"/>
      <path class="cls-3" d="m283.6,31.55l7.08-.14,5.16,13.78h.06s4.65-13.97,4.65-13.97l7.05-.14.41,21.26-4.68.09-.31-16.31h-.06s-5.26,16.42-5.26,16.42l-3.57.07-5.68-16.2h-.06s.31,16.31.31,16.31l-4.68.09-.41-21.26Z"/>
      <path class="cls-3" d="m323.76,32.39l14.16,1.56-.47,4.3-9.51-1.05-.47,4.3,8.8.97-.47,4.3-8.8-.97-.9,8.24-4.65-.51,2.32-21.14Z"/>
      <path class="cls-3" d="m348.03,35.8l3.8.72,5.15,22.61-5.19-.98-.96-4.77-8.11-1.53-2.57,4.1-5.07-.96,12.95-19.2Zm.62,6.42l-3.76,6.02,5.1.96-1.34-6.98Z"/>
      <path class="cls-3" d="m376.62,48.46c-.29-.67-.72-1.23-1.28-1.7s-1.27-.83-2.11-1.07c-.85-.24-1.68-.3-2.49-.17-.81.12-1.57.4-2.26.84s-1.31,1.02-1.83,1.75c-.53.72-.92,1.56-1.19,2.5-.27.96-.37,1.89-.3,2.77.07.88.29,1.69.64,2.43.35.73.83,1.37,1.45,1.89.61.53,1.32.9,2.13,1.13.92.26,1.8.3,2.62.11.82-.18,1.56-.56,2.22-1.12l2.96,3.87c-1.21.97-2.56,1.55-4.05,1.76-1.49.2-2.94.11-4.34-.29-1.6-.45-3-1.12-4.21-2-1.21-.88-2.17-1.93-2.89-3.14-.72-1.21-1.16-2.56-1.34-4.05-.17-1.49-.03-3.05.43-4.68.46-1.64,1.15-3.05,2.08-4.22s2.01-2.09,3.25-2.75c1.25-.66,2.61-1.05,4.1-1.17,1.49-.12,3.03.04,4.63.5.58.16,1.16.39,1.76.67.59.28,1.16.62,1.71,1.03.54.4,1.04.88,1.49,1.42.45.54.82,1.16,1.1,1.84l-4.26,1.85Z"/>
      <path class="cls-3" d="m385.75,45.81l4.42,1.55-7.04,20.07-4.42-1.55,7.04-20.07Z"/>
      <path class="cls-3" d="m395.23,49.21l4.33,1.77-6.4,15.68,8.03,3.28-1.63,4-12.36-5.05,8.03-19.69Z"/>
      <path class="cls-3" d="m411.05,55.86l4.21,2.04-9.23,19.15-4.21-2.04,9.23-19.15Z"/>
      <path class="cls-3" d="m421.56,65.86l-5.36-2.84,1.94-3.66,14.85,7.87-1.94,3.66-5.36-2.84-8,15.14-4.14-2.19,8-15.13Z"/>
      <path class="cls-3" d="m439.84,71.62l3.28,2.06-3.45,22.94-4.47-2.81.84-4.79-6.99-4.39-3.89,2.88-4.37-2.74,19.06-13.14Zm-1.76,6.2l-5.69,4.23,4.4,2.76,1.29-6.99Z"/>
      <path class="cls-3" d="m452.44,85.04l-4.89-3.59,2.45-3.34,13.55,9.94-2.45,3.34-4.89-3.59-10.11,13.81-3.77-2.77,10.11-13.81Z"/>
      <path class="cls-3" d="m466.16,90.43l3.6,2.99-13.56,16.37-3.6-2.99,13.56-16.37Z"/>
      <path class="cls-3" d="m466,103.84c1.16-1.24,2.42-2.17,3.78-2.79,1.36-.62,2.74-.93,4.15-.94,1.41-.01,2.8.27,4.18.85s2.67,1.43,3.88,2.57c1.21,1.13,2.15,2.37,2.82,3.71.67,1.34,1.04,2.71,1.12,4.12.08,1.41-.14,2.81-.67,4.21-.53,1.4-1.37,2.72-2.53,3.96-1.16,1.24-2.42,2.17-3.78,2.79-1.36.62-2.74.93-4.15.95-1.41.01-2.8-.27-4.18-.85-1.38-.58-2.67-1.44-3.88-2.57-1.21-1.14-2.15-2.37-2.82-3.71s-1.04-2.71-1.12-4.12c-.08-1.41.14-2.81.67-4.21.53-1.4,1.37-2.72,2.53-3.96Zm3.55,3.33c-.68.73-1.2,1.51-1.54,2.32-.34.82-.51,1.65-.5,2.49,0,.84.19,1.67.55,2.47.36.8.9,1.55,1.63,2.23.73.68,1.51,1.18,2.33,1.48.82.3,1.65.43,2.5.38.84-.05,1.66-.27,2.45-.67.79-.39,1.53-.96,2.22-1.69.67-.72,1.18-1.49,1.53-2.31.35-.83.52-1.66.51-2.5,0-.84-.19-1.67-.55-2.47-.36-.8-.9-1.55-1.63-2.23-.73-.68-1.51-1.18-2.33-1.49-.82-.31-1.66-.43-2.5-.39-.84.05-1.66.28-2.46.68-.8.4-1.54.96-2.21,1.68Z"/>
      <path class="cls-3" d="m493.73,115.88l4.15,4.82-5.29,16.5.04.05,11.18-9.65,3.05,3.55-16.09,13.88-3.99-4.64,5.4-16.92-.04-.04-11.46,9.88-3.05-3.55,16.09-13.88Z"/>
      <path class="cls-3" d="m517.99,155.39c.19-.58.19-1.21.02-1.88-.17-.67-.42-1.24-.74-1.72-.19-.28-.42-.55-.68-.81-.27-.25-.56-.47-.88-.64-.32-.17-.65-.26-1-.27-.34,0-.68.1-1.01.32-.53.36-.8.83-.82,1.42-.02.59.08,1.25.29,1.99.21.74.45,1.53.72,2.36.27.83.42,1.67.47,2.53.04.85-.11,1.68-.46,2.5-.35.81-1.03,1.56-2.06,2.26-.98.66-1.96,1.05-2.93,1.18-.98.13-1.91.04-2.81-.26-.9-.3-1.74-.78-2.53-1.45-.79-.67-1.48-1.46-2.1-2.37-.77-1.15-1.31-2.33-1.62-3.54-.31-1.22-.36-2.51-.15-3.88l4.9.72c-.26.76-.34,1.54-.22,2.34.12.8.39,1.53.83,2.17.21.32.46.61.76.88.29.27.6.49.92.65.32.16.65.24.99.24.34,0,.67-.1.98-.32.53-.36.81-.84.85-1.46.03-.62-.05-1.3-.25-2.06-.2-.76-.43-1.57-.69-2.43-.27-.86-.42-1.72-.47-2.58-.05-.86.09-1.7.41-2.51.32-.81.98-1.54,1.96-2.2.95-.64,1.9-1.01,2.87-1.12.96-.11,1.9,0,2.8.29.9.3,1.74.78,2.53,1.43.79.65,1.47,1.41,2.05,2.28.67,1,1.18,2.05,1.52,3.18.34,1.12.43,2.28.27,3.47l-4.7-.71Z"/>
      <path class="cls-3" d="m526.86,159.54l2.33,4.07-7.65,4.39,11.75,2.78,3.04,5.32-13.26-3.3-4.76,14.57-3.25-5.68,4.45-12.53-8.75,5.02-2.33-4.07,18.43-10.58Z"/>
      <path class="cls-3" d="m537.87,179.39l2.08,4.2-19.03,9.45-2.08-4.2,19.03-9.45Z"/>
      <path class="cls-3" d="m542.3,188.5l1.87,4.29-15.5,6.79,3.47,7.95-3.96,1.73-5.35-12.25,19.46-8.52Z"/>
      <path class="cls-3" d="m549.09,204.74l1.56,4.42-15.96,5.64,2.89,8.19-4.07,1.44-4.44-12.61,20.03-7.08Z"/>
      <path class="cls-3" d="m552.57,232.71c.36-.5.56-1.09.6-1.78.04-.69-.01-1.31-.17-1.87-.09-.33-.23-.65-.4-.98s-.39-.62-.64-.88c-.25-.26-.54-.45-.86-.57-.32-.12-.68-.12-1.06,0-.62.18-1.02.54-1.22,1.1s-.31,1.22-.34,1.99-.05,1.59-.04,2.46c0,.88-.11,1.73-.33,2.55-.22.82-.62,1.57-1.2,2.23-.58.67-1.47,1.17-2.66,1.51-1.13.32-2.19.4-3.15.21-.97-.18-1.83-.55-2.6-1.12-.76-.56-1.42-1.28-1.96-2.16-.54-.88-.96-1.84-1.26-2.9-.38-1.33-.53-2.62-.45-3.87.08-1.25.43-2.5,1.05-3.74l4.43,2.2c-.48.64-.79,1.36-.93,2.16-.14.8-.1,1.57.12,2.33.1.37.25.72.45,1.07.19.35.42.65.68.9.26.25.55.42.87.53.32.11.66.11,1.03,0,.62-.18,1.03-.55,1.25-1.12.22-.58.35-1.25.4-2.04.05-.78.08-1.63.09-2.52.01-.9.13-1.77.35-2.6.22-.83.61-1.58,1.17-2.26.56-.67,1.4-1.17,2.54-1.49,1.1-.31,2.12-.37,3.07-.17.95.2,1.81.58,2.57,1.14s1.42,1.28,1.97,2.14c.55.86.96,1.79,1.25,2.8.33,1.16.49,2.32.47,3.49-.02,1.17-.29,2.3-.81,3.39l-4.26-2.12Z"/>
      <path class="cls-3" d="m562.53,238.45l-.37-1.7.81-.18.98,4.46-.81.18-.37-1.7-4.25.94-.24-1.07,4.26-.94Zm1.66,3.67l.36,1.63-3.55,2.38v.04s4.23.66,4.23.66l.36,1.63-5.07,1.12-.23-1.07,4.23-.93v-.03s-4.6-.71-4.6-.71l-.19-.86,3.87-2.58v-.03s-4.24.93-4.24.93l-.24-1.07,5.07-1.12Z"/>
      <g>
        <path class="cls-1" d="m171.2,259.13h41.55c5.79,0,11.27.53,16.43,1.58,5.16,1.06,9.66,2.88,13.51,5.46,3.84,2.59,6.9,6.07,9.16,10.44,2.26,4.38,3.4,9.89,3.4,16.53s-1.05,12.02-3.16,16.45c-2.11,4.43-5,7.97-8.69,10.6-3.69,2.64-8.06,4.51-13.11,5.62s-10.53,1.66-16.43,1.66h-18.01v43.67h-24.65v-112.02Zm24.65,47.46h16.43c2.21,0,4.34-.21,6.4-.63,2.05-.42,3.9-1.13,5.53-2.14,1.63-1,2.95-2.37,3.95-4.11,1-1.74,1.5-3.93,1.5-6.57,0-2.85-.66-5.14-1.98-6.88-1.32-1.74-3-3.08-5.06-4.04-2.05-.95-4.34-1.55-6.87-1.82-2.53-.26-4.95-.4-7.27-.4h-12.64v26.58Z"/>
        <path class="cls-1" d="m326.03,286.5c-2-2.53-4.72-4.4-8.14-5.62-3.42-1.21-6.66-1.82-9.72-1.82-1.79,0-3.63.21-5.53.63-1.9.42-3.69,1.08-5.37,1.98-1.69.9-3.06,2.08-4.11,3.56-1.05,1.48-1.58,3.27-1.58,5.38,0,3.38,1.26,5.96,3.79,7.75,2.53,1.79,5.71,3.32,9.56,4.59,3.84,1.27,7.98,2.53,12.4,3.8,4.42,1.27,8.56,3.06,12.4,5.38,3.84,2.32,7.03,5.43,9.56,9.33,2.53,3.9,3.79,9.12,3.79,15.66s-1.16,11.66-3.48,16.3c-2.32,4.64-5.45,8.49-9.4,11.55-3.95,3.06-8.53,5.33-13.75,6.8-5.21,1.48-10.72,2.21-16.51,2.21-7.27,0-14.01-1.11-20.22-3.32-6.22-2.21-12.01-5.8-17.38-10.76l17.54-19.3c2.53,3.38,5.71,5.99,9.56,7.83,3.84,1.85,7.82,2.77,11.93,2.77,2,0,4.03-.24,6.08-.71,2.05-.47,3.9-1.19,5.53-2.14,1.63-.95,2.95-2.16,3.95-3.64,1-1.48,1.5-3.22,1.5-5.22,0-3.38-1.29-6.04-3.87-7.99-2.58-1.95-5.82-3.61-9.72-4.98-3.9-1.37-8.11-2.74-12.64-4.11-4.53-1.37-8.75-3.22-12.64-5.54-3.9-2.32-7.14-5.38-9.72-9.18-2.58-3.8-3.87-8.81-3.87-15.03s1.19-11.29,3.56-15.82c2.37-4.53,5.53-8.33,9.48-11.39,3.95-3.06,8.5-5.35,13.67-6.88,5.16-1.53,10.48-2.29,15.96-2.29,6.32,0,12.43.9,18.33,2.69,5.9,1.79,11.22,4.8,15.96,9.02l-16.91,18.51Z"/>
        <path class="cls-1" d="m362.37,259.13h75.05v22.78h-50.4v22.78h46.61v22.78h-46.61v43.67h-24.65v-112.02Z"/>
      </g>
      <g>
        <path class="cls-1" d="m215.53,413.69c-.91-1.15-2.15-2.01-3.71-2.56-1.56-.55-3.04-.83-4.43-.83-.82,0-1.66.1-2.52.29-.86.19-1.68.49-2.45.9-.77.41-1.39.95-1.87,1.62-.48.67-.72,1.49-.72,2.45,0,1.54.58,2.72,1.73,3.53,1.15.82,2.6,1.51,4.36,2.09s3.64,1.15,5.65,1.73,3.9,1.39,5.65,2.45c1.75,1.06,3.2,2.48,4.36,4.25,1.15,1.78,1.73,4.16,1.73,7.14s-.53,5.31-1.58,7.43c-1.06,2.12-2.48,3.87-4.28,5.26-1.8,1.39-3.89,2.43-6.26,3.1-2.38.67-4.88,1.01-7.52,1.01-3.31,0-6.38-.5-9.22-1.51-2.83-1.01-5.47-2.64-7.92-4.9l7.99-8.8c1.15,1.54,2.6,2.73,4.36,3.57,1.75.84,3.56,1.26,5.44,1.26.91,0,1.84-.11,2.77-.33.94-.22,1.78-.54,2.52-.97.74-.43,1.34-.98,1.8-1.66.46-.67.68-1.47.68-2.38,0-1.54-.59-2.75-1.76-3.64-1.18-.89-2.65-1.65-4.43-2.27-1.78-.62-3.7-1.25-5.76-1.87-2.06-.62-3.98-1.47-5.76-2.52-1.78-1.06-3.25-2.45-4.43-4.18-1.18-1.73-1.76-4.01-1.76-6.85s.54-5.14,1.62-7.21c1.08-2.07,2.52-3.8,4.32-5.19,1.8-1.39,3.88-2.44,6.23-3.14,2.35-.7,4.78-1.04,7.27-1.04,2.88,0,5.66.41,8.35,1.23,2.69.82,5.11,2.19,7.27,4.11l-7.7,8.44Z"/>
        <path class="cls-1" d="m232.09,401.21h11.23v21.2l19.8-21.2h14.69l-22.68,23.72,24.62,27.33h-15.7l-20.74-24.22v24.22h-11.23v-51.04Z"/>
        <path class="cls-1" d="m283.49,401.21h11.23v51.04h-11.23v-51.04Z"/>
        <path class="cls-1" d="m305.38,401.21h11.23v40.66h20.81v10.38h-32.04v-51.04Z"/>
        <path class="cls-1" d="m344.04,401.21h11.23v40.66h20.81v10.38h-32.04v-51.04Z"/>
        <path class="cls-1" d="m407.47,413.69c-.91-1.15-2.15-2.01-3.71-2.56-1.56-.55-3.04-.83-4.43-.83-.82,0-1.66.1-2.52.29-.86.19-1.68.49-2.45.9-.77.41-1.39.95-1.87,1.62-.48.67-.72,1.49-.72,2.45,0,1.54.58,2.72,1.73,3.53,1.15.82,2.6,1.51,4.36,2.09s3.64,1.15,5.65,1.73,3.9,1.39,5.65,2.45c1.75,1.06,3.2,2.48,4.36,4.25,1.15,1.78,1.73,4.16,1.73,7.14s-.53,5.31-1.58,7.43c-1.06,2.12-2.48,3.87-4.28,5.26-1.8,1.39-3.89,2.43-6.26,3.1-2.38.67-4.88,1.01-7.52,1.01-3.31,0-6.38-.5-9.22-1.51-2.83-1.01-5.47-2.64-7.92-4.9l7.99-8.8c1.15,1.54,2.6,2.73,4.36,3.57,1.75.84,3.56,1.26,5.44,1.26.91,0,1.84-.11,2.77-.33.94-.22,1.78-.54,2.52-.97.74-.43,1.34-.98,1.8-1.66.46-.67.68-1.47.68-2.38,0-1.54-.59-2.75-1.76-3.64-1.18-.89-2.65-1.65-4.43-2.27-1.78-.62-3.7-1.25-5.76-1.87-2.06-.62-3.98-1.47-5.76-2.52-1.78-1.06-3.25-2.45-4.43-4.18-1.18-1.73-1.76-4.01-1.76-6.85s.54-5.14,1.62-7.21c1.08-2.07,2.52-3.8,4.32-5.19,1.8-1.39,3.88-2.44,6.23-3.14,2.35-.7,4.78-1.04,7.27-1.04,2.88,0,5.66.41,8.35,1.23,2.69.82,5.11,2.19,7.27,4.11l-7.7,8.44Z"/>
      </g>
      <rect class="cls-2" x="30.95" y="33.27" width="17.1" height="5.8"/>
      <g>
        <path class="cls-4" d="m153.56,175.84c.66-3.03,1.89-5.95,3.5-8.55,1.62-2.6,3.62-4.87,5.77-6.75-1.72,1.5-3.26,3.2-4.58,5.05,1-1.38,2.05-2.56,3.21-3.63,1.16-1.07,2.43-2.03,3.91-2.92-.35.4-1,.9-1.57,1.39-.57.49-1.06.98-1.13,1.29-3.01,2.73-5.52,6.03-7.3,9.71-1.79,3.67-2.84,7.72-3.02,11.81-.43-1.63-.22-2.98.11-4.14.35-1.17.83-2.15,1.09-3.25"/>
        <path class="cls-4" d="m173.71,155.5c-.78.25-1.53.51-2.26.8.76-.34,1.54-.63,2.26-.8"/>
        <path class="cls-4" d="m183.21,208.94c.83-.09,1.66-.22,2.46-.35-.79.2-1.63.29-2.46.35"/>
        <path class="cls-4" d="m154.85,186.4l.36,1.36c.52,3.49,1.7,6.95,3.58,10.13-1.03-1.71-2.01-3.55-2.73-5.49-.72-1.94-1.18-3.99-1.21-6"/>
        <path class="cls-4" d="m155.42,182.58c.02-3.52.99-7.08,2.66-9.93-1.58,2.88-2.53,6.35-2.66,9.93"/>
        <path class="cls-4" d="m200.54,194.01c-.07-.03-.09-.1-.09-.19.03-.08.04-.16.04-.24.64-.95,1.21-1.96,1.71-3-.07.28-.04.58-.15.85-.3.57-.56.88-.8,1.21-.24.33-.46.69-.71,1.36"/>
        <path class="cls-4" d="m182.28,209l-.09.04c-.29.02-.57.04-.85.05l-.1-.03c.35-.03.69-.05,1.05-.06"/>
        <path class="cls-4" d="m199.72,195.23c-.12-.06-.25-.11-.39-.09.41-.5.79-1.02,1.15-1.55-.01.08-.02.16-.03.23-.13.43-.6.92-.73,1.41"/>
        <path class="cls-4" d="m187.71,202.75c-.38.12-.65.47-.82.58-1.06.07-2.1.08-3.3.07-.18.09-.57.12-.94.27-.23-.1-.46-.19-.71-.27,2.62.04,5.33-.43,7.95-1.42-.68.31-1.41.58-2.18.77"/>
        <path class="cls-4" d="m175.58,159.61c2-.65,4.29-.85,6.53-.76,2.24.08,4.42.41,6.5.63-2.26-.9-5.17-1.41-7.6-1.54-2.43-.16-4.39-.03-4.89-.52-.52-.47,1.25-.99,3.68-1.08,1.21-.04,2.58.03,3.88.19,1.3.16,2.54.4,3.55.6q-.51-.23-1.02-.44c.52.21,1.02.43,1.52.41-.5-.24-1.27-.52-1.99-.76-.72-.24-1.4-.46-1.69-.68.34-.07.68-.13,1.03-.18-1.39-.61-3.51-.98-5.68-1.04-2.17-.08-4.36.13-5.96.16,3.8-.4,7.88-.38,11.98.42,4.09.79,8.21,2.37,11.89,4.82,3.68,2.44,6.9,5.77,9.17,9.69,2.27,3.91,3.58,8.35,3.76,12.73.7,9.79-3.16,19.32-9.98,25.77-.66.58-1.89,1.46-3.35,2.24-1.46.8-3.14,1.49-4.57,1.94-4.95,1.99-10.44,2.68-15.85,2.19-5.75-.73-11.14-3.34-15.47-7.2-4.34-3.87-7.64-9.03-9.49-14.9-.38-1.17-.42-2.66-.17-3.1.12-.22.31-.19.56.25.26.44.57,1.28,1.08,2.63,1.79,4.45,4.41,8.55,7.78,11.94-.33-.07-.85-.55-1.38-1.12-.53-.56-1.07-1.21-1.5-1.56.99,1.49,2.05,2.76,3.2,3.91,1.16,1.15,2.43,2.18,3.9,3.15-1.97-1.29-3.8-2.8-5.42-4.51,2.03,2.14,4.47,4.1,7.24,5.66,2.76,1.55,5.83,2.69,8.99,3.23,1.15.22,2.19.67,3.41.96,1.21.29,2.62.43,4.27-.07-4.23.02-8.46-.88-12.34-2.55-3.88-1.67-7.41-4.11-10.37-7.1.02,0,.03.01.05,0-2.67-2.64-4.57-5.55-6.07-8.84.5,1.01,1.09,1.99,1.54,2.88-2.37-4.72-3.65-9.8-3.6-14.94.32,3.61,1.19,7.21,2.65,10.6,1.46,3.39,3.53,6.56,6.14,9.24,2.6,2.68,5.72,4.85,9.12,6.32,3.39,1.47,7.05,2.22,10.6,2.2-1.98-.35-4.26-.58-6.45-1.12-2.18-.52-4.24-1.35-5.59-2.47,5.67,2.94,12.37,3.99,18.88,2.69l-1.4.44c2.07-.13,4.17-.7,6.15-1.54,1.98-.84,3.84-1.94,5.56-3.09.31-.21.62-.41.92-.63l-.92.63c-3.2,2.1-6.73,3.5-10.31,4.2,1.6-.5,3.29-1.02,5.27-1.8-1.15.24-2.72.71-4.32,1.02-2.07.53-4.21.82-6.32.84,3.28-.11,6.44-1,9.04-2.32-4.13,1.34-8.65,1.9-12.93,1.23,2.36.24,4.74.16,7.06-.24,3.92-.46,7.8-1.82,11.21-4.06l-.38.28c.26-.17.51-.35.76-.53,1.32-.9,2.56-1.92,3.7-3.07,1-1.05,1.79-2.25,2.45-3.49l.4-.58c-.16.43-.18.68.35,0,1.17-1.46,2.03-3.23,2.71-5.12.68-1.89,1.18-3.9,1.71-5.99.28-1.1.34-2.64.21-4.28.08-.45,0-.68-.09-.89-.04-.35-.09-.7-.14-1.06-.1-.86-.23-1.73-.47-2.54.17.82.34,1.68.47,2.54l.1.97c-.11-.22-.24-.44-.29-.92.24,2.96-.03,6.01-.81,8.95-.77,2.94-2.05,5.77-3.74,8.34.12-.36.33-.85.38-1.07-.23.56-.5,1.11-.78,1.65-1.13,1.63-2.43,3.16-3.87,4.54.4-.44.73-.9.97-1.34-2,1.98-4.29,3.66-6.8,4.97-2.51,1.3-5.22,2.22-8.03,2.7-5.31.64-10.68-.42-15.27-2.8,2.36,1.53,5.21,2.59,8.22,3.04-4.02-.4-7.97-1.77-11.38-3.99-3.41-2.21-6.27-5.27-8.19-8.81,1.09,1.04,2.51,2.42,3.49,2.72.14-.2-1.27-2.18-.28-1.16,1.86,1.79,3.49,3.21,4.99,4.19,1.49.98,2.86,1.49,4.06,1.28.25-.1-.66-1.06-1.29-1.99-.64-.93-1.03-1.77-.31-1.43,1.15.66,3.25,1.76,5.68,2.44.67.26,1.4.48,2.16.65.09.05.27,0,.48-.06,2.68.45,5.25.28,6.67.15.53-.04,1.05-.11,1.58-.19.29.02.54.06.76.15.3-.18.61-.35.91-.5,1.38-.35,2.71-.85,3.96-1.49.74-.26,1.49-.55,2.19-.92-.07-.07-.24-.1-.17-.26,1.46-.98,2.79-2.15,3.95-3.47.55-.46,1.1-.88,1.64-1.23.23-1.04,1.01-2.4,1.71-3.99.71-1.57,1.34-3.36,1.54-4.89h-.03c.28-1.52.4-3.08.35-4.66.07-.26.15-.52.24-.76-.17-.38-.23-.79-.32-.97-.05-1.27-.11-2.36-.25-3.46-.12-.17-.49-.45-.63-.84-.24-.8-.56-1.55-.91-2.25-.37-.84-.79-1.68-1.27-2.5-1.61-2.76-3.78-5.17-6.36-7.07-.03-.14.02-.27.07-.4-.52-.12-1.06-.59-1.51-.71.1,0,.17-.02.19-.09-.71-.25-1.1-.45-1.46-.68-.36-.23-.69-.49-1.31-.78-.29-.1-.6-.06-.9-.12-.14-.06-.27-.11-.41-.17-1.3-1.01-2.9-1.13-4.6-1.28-1.7-.29-3.45-.4-5.21-.3-1.39.11-1.99-.14-3.02-.14"/>
        <path class="cls-4" d="m202.38,190.19c.62-1.38,1.11-2.83,1.44-4.33-.22,1.62-.4,3.14-1.44,4.33"/>
        <path class="cls-4" d="m169.22,199.44c-.3-.55-.67-1.09-1.08-1.64,2.57,2.48,5.84,4.24,9.39,5.06v.03c-1.45-.25-3.12-.93-4.58-1.68-1.47-.74-2.74-1.53-3.73-1.78"/>
        <path class="cls-4" d="m200.46,193.82c0-.07.02-.14.03-.23,0,0,0,0,0-.01,0,.08,0,.16-.03.24"/>
        <path class="cls-4" d="m160.22,197.02l-.23-.38c.64.92,1.33,1.81,2.07,2.65-.64-.63-1.27-1.41-1.84-2.27"/>
        <path class="cls-4" d="m156.6,185.68c-.28-2.25-.26-4.54.07-6.79.57-2.87,1.71-5.57,3.29-7.76-2.48,4.31-3.74,9.42-3.36,14.56"/>
        <path class="cls-4" d="m164.76,194.06c-.31-.69-.55-1.41-.76-2.14.3.68.65,1.34,1.03,1.97-.15-.07-.2.1-.27.16"/>
        <path class="cls-4" d="m166.79,203.61l-.54-.4c.51.29,1.03.56,1.55.81-.21-.06-.67-.27-1.01-.4"/>
        <path class="cls-4" d="m162.51,186.48c.06.54.14,1.07.25,1.6-.13-.3-.28-.59-.45-.89.1-.2.15-.45.19-.72"/>
        <path class="cls-4" d="m162.8,178.18c.19-.71.43-1.39.71-2.02-.27.81-.49,1.65-.67,2.49-.05-.21-.09-.38-.04-.47"/>
        <path class="cls-5" d="m169.3,144.22c2.21.95,4.25,2.32,5.98,3.94,1.74,1.62,3.17,3.48,4.28,5.4-.88-1.53-1.95-2.96-3.16-4.24.9.96,1.65,1.94,2.29,2.99.64,1.05,1.18,2.16,1.64,3.42-.25-.33-.53-.89-.82-1.4-.29-.5-.59-.95-.81-1.05-1.63-2.7-3.77-5.1-6.3-7.01-2.52-1.91-5.45-3.31-8.53-4.05,1.3-.09,2.29.27,3.13.7.84.44,1.51.95,2.31,1.32"/>
        <path class="cls-5" d="m181.79,162.59c-.07-.63-.16-1.24-.27-1.84.15.63.25,1.27.27,1.84"/>
        <path class="cls-5" d="m139.74,161.92c-.05.65-.08,1.3-.1,1.93-.04-.63.02-1.28.1-1.93"/>
        <path class="cls-5" d="m161.09,143.64l-1.09.08c-2.73-.12-5.54.27-8.23,1.23,1.46-.53,3-1.01,4.58-1.27,1.58-.26,3.21-.31,4.74-.03"/>
        <path class="cls-5" d="m163.91,144.64c2.68.53,5.24,1.81,7.16,3.5-1.96-1.63-4.46-2.87-7.16-3.5"/>
        <path class="cls-5" d="m148.53,177.35s.09-.05.16-.04c.06.03.12.06.18.06.63.63,1.31,1.22,2.03,1.75-.21-.09-.44-.12-.63-.24-.39-.32-.58-.56-.8-.79-.22-.23-.46-.45-.93-.75"/>
        <path class="cls-5" d="m139.84,161.2l-.02-.07c.03-.22.05-.44.09-.66l.03-.08c-.03.27-.07.54-.11.81"/>
        <path class="cls-5" d="m147.72,176.54c.06-.08.12-.17.13-.28.32.38.65.75,1.01,1.11-.06-.02-.12-.04-.17-.05-.3-.16-.61-.6-.97-.77"/>
        <path class="cls-5" d="m143.78,166.27c-.04-.31-.26-.56-.32-.71.1-.82.25-1.61.44-2.52-.04-.15,0-.45-.07-.76.11-.16.21-.33.31-.5-.42,1.99-.46,4.13-.1,6.27-.13-.57-.23-1.16-.27-1.78"/>
        <path class="cls-5" d="m178.38,163.41c.19,1.62,0,3.4-.39,5.09-.39,1.7-.97,3.31-1.44,4.86,1.02-1.59,1.84-3.73,2.29-5.57.48-1.83.68-3.34,1.12-3.65.44-.32.57,1.1.27,2.97-.15.93-.4,1.96-.72,2.93-.31.97-.68,1.88-.98,2.62.25-.35.25-.35.49-.71-.24.36-.48.72-.54,1.1.26-.35.58-.89.87-1.41.29-.51.56-1,.77-1.19,0,.27,0,.54-.01.81.67-.97,1.26-2.53,1.64-4.18.38-1.64.54-3.34.76-4.57-.26,2.96-.88,6.06-2.09,9.07-1.21,3.01-3.02,5.91-5.43,8.35-2.4,2.44-5.41,4.41-8.73,5.55-3.31,1.15-6.88,1.49-10.24.98-7.55-.91-14.23-5.27-18.12-11.42-.34-.59-.83-1.66-1.21-2.89-.39-1.23-.66-2.61-.8-3.77-.78-4.07-.49-8.36.68-12.41,1.41-4.28,4.18-8,7.76-10.73,3.59-2.74,8-4.49,12.73-5.03.95-.12,2.09.07,2.38.33.15.13.1.26-.28.39-.37.13-1.06.24-2.16.43-3.65.7-7.16,2.1-10.23,4.16.1-.23.54-.57,1.06-.89.51-.32,1.08-.64,1.41-.91-1.28.54-2.4,1.15-3.45,1.86-1.05.71-2.02,1.53-2.98,2.51,1.27-1.31,2.69-2.48,4.24-3.47-1.93,1.23-3.78,2.8-5.38,4.68-1.59,1.87-2.91,4.05-3.79,6.38-.34.84-.83,1.57-1.24,2.46-.4.88-.72,1.93-.58,3.27.61-3.23,1.92-6.33,3.77-9.03,1.85-2.71,4.23-5.04,6.94-6.86,0,.01-.01.03-.02.04,2.4-1.65,4.9-2.66,7.62-3.32-.84.23-1.68.53-2.42.75,3.94-1.1,7.99-1.33,11.9-.53-2.8-.29-5.66-.16-8.46.45-2.79.61-5.52,1.72-7.93,3.31-2.42,1.59-4.54,3.65-6.16,6.02-1.62,2.37-2.74,5.04-3.24,7.76.56-1.46,1.08-3.16,1.8-4.75.72-1.58,1.65-3.04,2.71-3.9-3.07,3.89-4.86,8.84-4.84,14l-.12-1.13c-.21,1.6-.08,3.28.26,4.91.34,1.64.9,3.21,1.53,4.7.11.27.22.53.34.8l-.34-.8c-1.12-2.75-1.66-5.65-1.67-8.48.15,1.3.29,2.66.59,4.28-.01-.91-.14-2.18-.13-3.45-.1-1.66,0-3.33.3-4.95-.4,2.51-.2,5.06.42,7.24-.41-3.35-.16-6.88.98-10.04-.53,1.76-.82,3.59-.86,5.42-.23,3.06.23,6.22,1.43,9.15l-.15-.33c.09.22.19.44.29.66.49,1.13,1.08,2.23,1.78,3.27.65.92,1.44,1.7,2.29,2.38l.39.39c-.3-.18-.49-.24-.05.27.94,1.1,2.16,2.03,3.49,2.82,1.34.8,2.79,1.48,4.3,2.19.8.37,1.96.65,3.22.79.33.12.52.11.69.06.27.02.55.04.82.05.67.06,1.35.08,2,.02-.65,0-1.33,0-2-.02l-.75-.07c.18-.05.37-.12.74-.09-2.29-.26-4.56-.91-6.68-1.94-2.12-1.02-4.08-2.42-5.79-4.08.26.15.6.37.75.45-.39-.26-.77-.54-1.14-.84-1.07-1.11-2.04-2.32-2.88-3.63.28.37.58.69.87.94-1.21-1.82-2.15-3.81-2.77-5.92-.62-2.1-.91-4.31-.86-6.52.3-4.15,1.9-8.08,4.39-11.23-1.52,1.57-2.74,3.59-3.53,5.82.9-3.01,2.53-5.81,4.72-8.09,2.18-2.28,4.94-4,7.91-4.94-.95.68-2.21,1.55-2.58,2.26.13.13,1.85-.64.92-.04-1.64,1.15-2.96,2.19-3.93,3.18-.97.99-1.56,1.96-1.57,2.91.04.21.91-.34,1.71-.69.8-.35,1.5-.52,1.13-.02-.67.78-1.82,2.22-2.69,3.97-.3.48-.57,1-.81,1.55-.05.06-.04.2-.03.38-.74,1.97-.99,3.96-1.1,5.06-.05.41-.07.82-.09,1.23-.06.22-.13.41-.23.56.1.26.18.51.25.77.06,1.11.25,2.19.55,3.24.09.61.2,1.22.37,1.81.06-.04.11-.17.22-.09.53,1.26,1.22,2.45,2.05,3.53.27.49.51.97.69,1.43.76.33,1.68,1.12,2.78,1.89,1.09.78,2.36,1.52,3.49,1.9v-.02c1.12.44,2.29.76,3.5.95.19.09.37.19.54.29.31-.07.63-.06.79-.1.97.15,1.81.26,2.67.32.15-.07.41-.31.73-.36.65-.07,1.26-.2,1.85-.36.7-.16,1.4-.35,2.09-.6,2.33-.82,4.49-2.11,6.32-3.8.11,0,.2.06.29.11.17-.38.6-.72.76-1.04-.01.07,0,.13.04.16.29-.5.51-.77.74-1.01.23-.24.47-.46.78-.88.12-.21.14-.45.22-.66.07-.1.13-.19.19-.29.96-.84,1.29-2.04,1.66-3.32.47-1.25.81-2.57.99-3.93.13-1.07.41-1.5.55-2.28"/>
        <path class="cls-5" d="m151.16,179.31c.96.68,1.99,1.26,3.08,1.74-1.2-.41-2.33-.77-3.08-1.74"/>
        <path class="cls-5" d="m149.04,152.66c.46-.14.92-.34,1.4-.58-2.27,1.6-4.09,3.83-5.24,6.41h-.02c.4-1.07,1.17-2.25,1.95-3.25.78-1.02,1.57-1.86,1.9-2.58"/>
        <path class="cls-5" d="m148.69,177.31c.05.01.11.03.17.05,0,0,0,0,0,0-.06,0-.12-.03-.18-.06"/>
        <path class="cls-5" d="m152.21,146.16l.32-.12c-.8.35-1.57.75-2.32,1.18.57-.4,1.26-.76,2-1.07"/>
        <path class="cls-5" d="m161.37,145.07c1.75.12,3.49.48,5.15,1.06,2.1.86,3.98,2.13,5.41,3.66-2.91-2.53-6.61-4.25-10.57-4.72"/>
        <path class="cls-5" d="m153.79,150.06c.57-.13,1.16-.21,1.74-.26-.56.13-1.12.3-1.65.49.08-.11-.04-.16-.08-.23"/>
        <path class="cls-5" d="m146.23,150.19l.39-.36c-.29.35-.58.7-.84,1.07.08-.15.31-.47.46-.71"/>
        <path class="cls-5" d="m159.89,149.46c-.42-.03-.84-.05-1.26-.04.24-.06.49-.13.74-.21.14.1.32.18.52.25"/>
        <path class="cls-5" d="m166.16,150.91c.52.25,1,.53,1.43.84-.58-.33-1.18-.62-1.79-.88.17,0,.3-.01.36.04"/>
      </g>
      <g>
        <path class="cls-4" d="m245.93,175.42c-.61-.77-1.44-1.34-2.49-1.71-1.05-.37-2.04-.56-2.97-.56-.55,0-1.11.06-1.69.19s-1.13.33-1.64.6c-.51.27-.93.64-1.25,1.09-.32.45-.48,1-.48,1.64,0,1.03.39,1.82,1.16,2.37.77.55,1.75,1.01,2.92,1.4s2.44.77,3.79,1.16,2.61.93,3.79,1.64c1.17.71,2.15,1.66,2.92,2.85.77,1.19,1.16,2.79,1.16,4.78s-.35,3.56-1.06,4.98c-.71,1.42-1.67,2.59-2.87,3.53-1.21.93-2.61,1.63-4.2,2.08-1.59.45-3.27.68-5.04.68-2.22,0-4.28-.34-6.18-1.01-1.9-.68-3.67-1.77-5.31-3.29l5.36-5.89c.77,1.03,1.75,1.83,2.92,2.39,1.17.56,2.39.85,3.64.85.61,0,1.23-.07,1.86-.22.63-.14,1.19-.36,1.69-.65.5-.29.9-.66,1.21-1.11.3-.45.46-.98.46-1.59,0-1.03-.39-1.84-1.18-2.44-.79-.6-1.78-1.1-2.97-1.52-1.19-.42-2.48-.84-3.86-1.26-1.38-.42-2.67-.98-3.86-1.69-1.19-.71-2.18-1.64-2.97-2.8-.79-1.16-1.18-2.69-1.18-4.59s.36-3.45,1.09-4.83c.72-1.38,1.69-2.54,2.89-3.48,1.21-.93,2.6-1.63,4.17-2.1s3.2-.7,4.87-.7c1.93,0,3.79.27,5.6.82,1.8.55,3.43,1.47,4.87,2.75l-5.16,5.65Z"/>
        <path class="cls-4" d="m271.7,185.38c-.35-.51-.85-.94-1.5-1.28-.64-.34-1.33-.51-2.07-.51-1.83,0-3.26.55-4.27,1.64-1.01,1.1-1.52,2.53-1.52,4.3s.51,3.21,1.52,4.3c1.01,1.09,2.44,1.64,4.27,1.64.8,0,1.5-.18,2.07-.53.58-.35,1.08-.77,1.5-1.26l4.78,5.03c-1.13,1.16-2.45,1.97-3.98,2.44-1.53.47-2.98.7-4.37.7-1.8,0-3.5-.29-5.09-.87-1.59-.58-2.98-1.41-4.15-2.49-1.17-1.08-2.1-2.38-2.77-3.89-.68-1.51-1.01-3.2-1.01-5.07s.34-3.56,1.01-5.07c.68-1.51,1.6-2.81,2.77-3.89,1.17-1.08,2.56-1.91,4.15-2.49,1.59-.58,3.29-.87,5.09-.87,1.38,0,2.84.23,4.37.7,1.53.47,2.85,1.28,3.98,2.44l-4.78,5.02Z"/>
        <path class="cls-4" d="m279.08,177.79h7.24v3.77h.1c.77-1.45,1.69-2.54,2.75-3.26s2.4-1.09,4-1.09c.42,0,.84.02,1.25.05.42.03.8.1,1.16.19v6.62c-.51-.16-1.02-.28-1.52-.36-.5-.08-1.02-.12-1.57-.12-1.38,0-2.48.19-3.28.58-.8.39-1.42.93-1.86,1.62-.43.69-.72,1.52-.84,2.49-.13.97-.19,2.03-.19,3.19v9.81h-7.24v-23.48Z"/>
        <path class="cls-4" d="m321.3,201.27h-6.95v-3.19h-.1c-.26.45-.59.9-.99,1.35s-.89.85-1.47,1.21c-.58.35-1.24.64-1.98.87-.74.23-1.54.34-2.41.34-1.83,0-3.32-.28-4.46-.85-1.14-.56-2.03-1.34-2.65-2.34-.63-1-1.04-2.17-1.25-3.53-.21-1.35-.31-2.82-.31-4.4v-12.95h7.24v11.5c0,.68.02,1.38.07,2.1.05.72.19,1.39.43,2,.24.61.61,1.11,1.11,1.5.5.39,1.21.58,2.15.58s1.69-.17,2.27-.51c.58-.34,1.02-.79,1.33-1.35.3-.56.51-1.2.6-1.91.1-.71.15-1.45.15-2.22v-11.69h7.24v23.48Z"/>
        <path class="cls-4" d="m326.41,177.79h6.95v3.19h.1c.22-.45.55-.9.97-1.35.42-.45.92-.85,1.5-1.21s1.24-.64,1.98-.87c.74-.22,1.54-.34,2.41-.34,1.64,0,3.1.34,4.37,1.01,1.27.68,2.23,1.74,2.87,3.19.84-1.51,1.85-2.59,3.04-3.24,1.19-.64,2.65-.97,4.39-.97,1.58,0,2.9.27,3.98.8,1.08.53,1.93,1.26,2.56,2.17.63.92,1.08,2,1.35,3.24.27,1.24.41,2.57.41,3.99v13.87h-7.24v-13.67c0-1.09-.23-2.04-.7-2.83-.47-.79-1.29-1.18-2.48-1.18-.84,0-1.54.14-2.1.41-.56.27-1.01.65-1.35,1.14s-.58,1.05-.72,1.69-.22,1.32-.22,2.03v12.42h-7.24v-12.42c0-.42-.02-.93-.05-1.55-.03-.61-.14-1.19-.34-1.74-.19-.55-.51-1.01-.94-1.4-.43-.39-1.07-.58-1.91-.58-.93,0-1.69.17-2.27.51-.58.34-1.02.79-1.33,1.35-.31.56-.51,1.2-.6,1.91-.1.71-.14,1.45-.14,2.22v11.69h-7.24v-23.48Z"/>
      </g>
      <g>
        <path class="cls-4" d="m372.54,201.56c-.87,0-1.62-.31-2.24-.94-.63-.63-.94-1.38-.94-2.25s.31-1.62.94-2.25c.63-.63,1.38-.94,2.24-.94s1.62.31,2.24.94c.63.63.94,1.38.94,2.25s-.31,1.62-.94,2.25c-.63.63-1.38.94-2.24.94Z"/>
        <path class="cls-4" d="m381.42,189.82c0-1.67.31-3.24.94-4.69s1.49-2.72,2.58-3.82c1.09-1.09,2.38-1.96,3.86-2.58,1.48-.63,3.07-.94,4.78-.94s3.3.31,4.78.94c1.48.63,2.77,1.49,3.86,2.58,1.09,1.1,1.95,2.37,2.58,3.82s.94,3.01.94,4.69-.31,3.25-.94,4.71c-.63,1.47-1.49,2.74-2.58,3.82-1.09,1.08-2.38,1.93-3.86,2.56-1.48.63-3.07.94-4.78.94s-3.3-.31-4.78-.94c-1.48-.63-2.77-1.48-3.86-2.56s-1.95-2.35-2.58-3.82c-.63-1.46-.94-3.04-.94-4.71Zm4.63,0c0,1.16.18,2.23.53,3.21.35.98.85,1.82,1.5,2.51.64.69,1.43,1.24,2.36,1.64.93.4,1.98.6,3.14.6s2.2-.2,3.14-.6c.93-.4,1.72-.95,2.36-1.64.64-.69,1.14-1.53,1.5-2.51.35-.98.53-2.05.53-3.21s-.18-2.23-.53-3.21c-.35-.98-.85-1.82-1.5-2.51-.64-.69-1.43-1.24-2.36-1.64-.93-.4-1.98-.6-3.14-.6s-2.2.2-3.14.6c-.93.4-1.72.95-2.36,1.64-.64.69-1.14,1.53-1.5,2.51-.35.98-.53,2.05-.53,3.21Z"/>
        <path class="cls-4" d="m411.19,178.37h4.34v3.53h.1c.29-.61.68-1.17,1.16-1.67.48-.5,1.02-.93,1.62-1.28.6-.35,1.25-.64,1.95-.85.71-.21,1.42-.31,2.12-.31s1.35.1,1.93.29l-.19,4.69c-.35-.1-.71-.18-1.06-.24-.35-.06-.71-.1-1.06-.1-2.12,0-3.75.6-4.87,1.79-1.13,1.19-1.69,3.04-1.69,5.56v11.5h-4.34v-22.9Z"/>
      </g>
      <path class="cls-4" d="m451.09,201.08c0,1.74-.3,3.33-.89,4.76-.6,1.43-1.44,2.67-2.53,3.72-1.09,1.05-2.41,1.86-3.96,2.44-1.54.58-3.25.87-5.11.87-2.19,0-4.19-.31-6.01-.92-1.82-.61-3.55-1.67-5.19-3.19l2.94-3.67c1.13,1.22,2.35,2.15,3.67,2.78,1.32.63,2.81.94,4.49.94s2.94-.23,4-.7c1.06-.47,1.91-1.07,2.53-1.81.63-.74,1.07-1.59,1.33-2.54.26-.95.39-1.91.39-2.88v-3.38h-.14c-.84,1.38-1.97,2.41-3.4,3.07-1.43.66-2.94.99-4.51.99-1.67,0-3.23-.3-4.66-.89-1.43-.6-2.66-1.42-3.69-2.46-1.03-1.05-1.83-2.29-2.41-3.72s-.87-2.99-.87-4.66.27-3.24.82-4.71c.55-1.46,1.33-2.75,2.34-3.84,1.01-1.09,2.24-1.95,3.67-2.56,1.43-.61,3.03-.92,4.8-.92,1.54,0,3.05.34,4.51,1.01,1.46.68,2.61,1.63,3.45,2.85h.1v-3.29h4.34v22.71Zm-11.87-19.23c-1.16,0-2.2.2-3.14.6-.93.4-1.72.95-2.36,1.64-.64.69-1.14,1.53-1.5,2.51-.35.98-.53,2.05-.53,3.21,0,2.32.67,4.18,2.03,5.58,1.35,1.4,3.18,2.1,5.5,2.1s4.15-.7,5.5-2.1c1.35-1.4,2.03-3.26,2.03-5.58,0-1.16-.18-2.23-.53-3.21-.35-.98-.85-1.82-1.5-2.51-.64-.69-1.43-1.24-2.36-1.64-.93-.4-1.98-.6-3.14-.6Z"/>
      <path class="cls-4" d="m458.67,173.52h1.7l1.15,3.16,1.15-3.16h1.71v4.85h-1.27v-3.15h-.02l-1.15,3.15h-.82l-1.15-3.15h-.02v3.15h-1.27v-4.85Zm-3.7,1.13h-1.4v-1.13h4.07v1.13h-1.4v3.72h-1.27v-3.72Z"/>
    </g>
  </g>
<script xmlns=""/></svg>