<svg xmlns="http://www.w3.org/2000/svg" id="Layer_2" data-name="Layer 2" viewBox="0 0 599.62 598.81"><defs><style>.cls-1{fill:#f7921e}.cls-2{fill:#f6b918}.cls-3{fill:#fff}.cls-4{fill:#405a70}.cls-5{fill:#1899b5}</style></defs><g id="Layer_1-2" data-name="Layer 1"><path d="M299.82 0H0v299.4c0 165.36 134.23 299.4 299.82 299.4s299.8-134.04 299.8-299.4S465.39 0 299.82 0" class="cls-4"/><path d="M89.18 91.04H12.36c-.79 0-1.44-.65-1.44-1.43V13.99c0-.79.65-1.43 1.44-1.43h76.83c.79 0 1.44.65 1.44 1.43v75.62c0 .79-.65 1.43-1.44 1.43" class="cls-2"/><path d="M80.63 82.99H22.95a.8.8 0 0 1-.8-.79V22.4c0-.44.36-.79.8-.79h57.67c.44 0 .8.36.8.79v59.8c0 .44-.36.79-.8.79" class="cls-3"/><path d="M30.89 46.55h19.16v7.8H30.89zM30.46 57.83h23.65v5.9H30.46zM30.46 67.52h21.33v5.69H30.46zM71.13 73.43l-5.88-5.59-5.36 5.59V33.48h11.24v39.95z" class="cls-2"/><path d="M581.55 300.53c0 154.38-125.33 279.53-279.94 279.53S21.66 454.91 21.66 300.53 147 21 301.6 21s279.94 125.15 279.94 279.53" class="cls-1"/><path d="M581.55 300.53h-1.98c0 76.65-31.11 146.02-81.41 196.26-50.31 50.23-119.78 81.29-196.55 81.29-76.76 0-146.24-31.06-196.55-81.29-50.3-50.23-81.41-119.61-81.41-196.26 0-76.65 31.11-146.03 81.41-196.26 50.31-50.23 119.78-81.29 196.55-81.29 76.76 0 146.24 31.06 196.55 81.29 50.3 50.23 81.41 119.61 81.41 196.26h3.97c0-155.48-126.22-281.51-281.93-281.51-155.7 0-281.92 126.04-281.93 281.51 0 155.48 126.22 281.51 281.93 281.51 155.7 0 281.92-126.04 281.93-281.51h-1.98Z" class="cls-3"/><path d="M535.19 299.17c0 129.77-105.35 234.97-235.31 234.97S64.57 428.94 64.57 299.17 169.92 64.2 299.88 64.2s235.31 105.2 235.31 234.97M57.84 418.28 54.76 411c-.43-1.01-.74-2.01-.94-3-.2-.98-.21-1.91-.05-2.77.17-.86.55-1.66 1.15-2.38.6-.72 1.48-1.33 2.64-1.82 1.14-.48 2.18-.71 3.11-.66.93.04 1.76.29 2.5.74.73.45 1.39 1.08 1.95 1.88.57.8 1.07 1.72 1.51 2.75l1.33 3.15 7.64-3.23 1.83 4.32-19.59 8.28Zm6.48-7.83-1.22-2.88a6.18 6.18 0 0 0-.58-1.08c-.23-.33-.49-.6-.78-.81-.3-.21-.63-.34-1.01-.39-.38-.05-.8.03-1.26.22-.5.21-.85.5-1.06.85s-.32.75-.33 1.18c-.01.43.05.88.19 1.34.14.46.3.9.47 1.3l.94 2.21 4.65-1.96ZM49.85 399.32l-2.64-7.79a14.11 14.11 0 0 1-.69-3.02c-.11-.99-.05-1.9.18-2.75.23-.85.67-1.61 1.32-2.29.65-.67 1.56-1.21 2.74-1.61 1.42-.48 2.76-.52 4-.12 1.25.4 2.24 1.27 2.99 2.6l6.77-8.01 1.81 5.32-6.62 6.94.74 2.19 8.05-2.73 1.51 4.44-20.14 6.83Zm6.83-7.27-.89-2.62c-.13-.4-.29-.81-.47-1.25-.18-.43-.4-.81-.67-1.12-.26-.31-.59-.53-.97-.67-.38-.13-.85-.11-1.4.08-.51.17-.88.42-1.12.73-.23.31-.37.66-.43 1.03-.05.38-.04.78.05 1.22.08.44.2.85.33 1.25l.98 2.9 4.58-1.55ZM53.91 377.72c-1.65.41-3.22.5-4.7.28-1.48-.22-2.81-.71-4-1.47s-2.2-1.76-3.04-2.99c-.84-1.24-1.46-2.66-1.86-4.28-.4-1.61-.51-3.16-.34-4.65.17-1.49.6-2.84 1.3-4.07s1.65-2.28 2.86-3.16 2.63-1.53 4.29-1.94 3.22-.5 4.7-.27c1.48.22 2.81.71 4 1.47s2.2 1.76 3.04 3c.84 1.24 1.46 2.66 1.86 4.27.4 1.62.51 3.16.34 4.65-.17 1.48-.6 2.84-1.3 4.06-.7 1.22-1.65 2.28-2.86 3.16-1.21.89-2.63 1.53-4.29 1.94ZM52.75 373c.97-.24 1.83-.61 2.56-1.11.73-.5 1.33-1.11 1.78-1.82s.75-1.5.89-2.37c.14-.87.09-1.79-.15-2.76-.24-.97-.62-1.81-1.15-2.52s-1.15-1.27-1.88-1.69c-.73-.42-1.54-.68-2.42-.78-.88-.1-1.81-.03-2.78.21-.95.23-1.8.6-2.54 1.11a6.2 6.2 0 0 0-1.79 1.82c-.45.71-.75 1.5-.89 2.37s-.08 1.79.15 2.76c.24.97.62 1.81 1.15 2.52.52.71 1.15 1.27 1.88 1.69.73.42 1.54.68 2.43.78.89.1 1.81.03 2.77-.2ZM37.29 352.84l-2.21-14.1 4.27-.67 1.48 9.47 4.27-.67-1.37-8.76 4.27-.67 1.37 8.76 8.19-1.28.72 4.63-21.01 3.29ZM34.31 333.58l-1.17-14.4 4.31-.35.79 9.73 3.95-.32-.75-9.19 4.31-.35.75 9.19 4.31-.35-.83-10.27 4.31-.35 1.21 14.94-21.2 1.72ZM38.04 302.97c-.47.39-.82.91-1.04 1.57-.22.65-.32 1.27-.31 1.85 0 .34.05.69.14 1.05.09.36.22.7.39 1.01.18.32.41.57.69.77.29.2.63.29 1.03.28.64-.01 1.13-.26 1.46-.75.33-.49.61-1.1.84-1.83s.45-1.53.68-2.37c.22-.85.55-1.64.98-2.38.43-.74 1.01-1.35 1.74-1.85s1.72-.75 2.96-.78c1.18-.02 2.22.18 3.11.6.89.42 1.63 1.01 2.23 1.75.59.74 1.04 1.6 1.34 2.59.3.99.46 2.03.48 3.13.03 1.38-.16 2.67-.56 3.86s-1.06 2.3-1.98 3.34l-3.73-3.27c.63-.49 1.12-1.11 1.45-1.85.34-.74.5-1.5.48-2.28 0-.38-.06-.76-.16-1.15s-.24-.74-.43-1.04c-.18-.31-.42-.55-.7-.74-.28-.18-.62-.27-1-.27-.64.01-1.14.27-1.5.76-.36.5-.67 1.12-.91 1.87-.25.75-.49 1.55-.74 2.42s-.58 1.67-1 2.42c-.43.75-1 1.38-1.71 1.88s-1.66.77-2.84.79c-1.14.02-2.15-.19-3.02-.62-.87-.43-1.6-1.02-2.2-1.76s-1.05-1.6-1.36-2.57-.47-1.98-.49-3.03c-.02-1.2.12-2.37.45-3.49.32-1.13.87-2.15 1.66-3.06l3.57 3.15ZM38.61 284.55c-.5.35-.89.85-1.15 1.48-.27.64-.42 1.25-.45 1.83-.02.34 0 .69.06 1.06.06.36.17.71.32 1.04.15.33.36.6.63.82s.6.33 1 .36c.64.04 1.14-.18 1.51-.64s.69-1.05.97-1.77.56-1.49.85-2.32c.29-.83.67-1.59 1.15-2.3.48-.71 1.1-1.28 1.87-1.71s1.77-.62 3.01-.55c1.18.07 2.2.34 3.05.83.85.49 1.55 1.12 2.09 1.91.54.78.92 1.68 1.14 2.68.22 1.01.31 2.06.24 3.16-.08 1.38-.36 2.65-.84 3.8-.49 1.16-1.23 2.22-2.22 3.19l-3.47-3.54c.67-.44 1.2-1.02 1.59-1.73.39-.71.61-1.46.65-2.24.02-.38 0-.77-.07-1.16-.07-.39-.18-.75-.35-1.07-.16-.32-.38-.58-.65-.79-.27-.2-.59-.32-.97-.34-.64-.04-1.16.18-1.56.65-.4.47-.75 1.07-1.05 1.79-.3.72-.61 1.51-.91 2.36-.31.84-.7 1.62-1.18 2.34-.48.71-1.1 1.3-1.84 1.75-.75.45-1.71.64-2.89.58-1.14-.06-2.13-.35-2.96-.84-.83-.5-1.52-1.14-2.06-1.92s-.92-1.67-1.16-2.67-.32-2.01-.27-3.05c.07-1.2.3-2.35.71-3.45a7.96 7.96 0 0 1 1.88-2.93l3.33 3.41ZM34.11 276.59l.49-4.66 21.15 2.24-.49 4.66-21.15-2.24ZM45.45 269.27c-1.68-.28-3.15-.82-4.42-1.62-1.27-.79-2.29-1.77-3.08-2.94s-1.32-2.49-1.6-3.96-.28-3.02 0-4.66c.28-1.64.79-3.11 1.54-4.4.75-1.3 1.69-2.37 2.81-3.21 1.13-.84 2.42-1.43 3.88-1.76 1.46-.33 3.03-.36 4.71-.07 1.68.28 3.15.82 4.42 1.62 1.27.79 2.29 1.77 3.08 2.94s1.32 2.49 1.6 3.96c.28 1.47.28 3.02 0 4.66-.28 1.64-.79 3.11-1.54 4.4-.75 1.29-1.68 2.37-2.81 3.21-1.13.85-2.42 1.43-3.88 1.77-1.46.33-3.03.36-4.7.07Zm.81-4.8c.99.17 1.92.17 2.79 0a6.39 6.39 0 0 0 2.36-.96c.7-.47 1.29-1.08 1.76-1.82s.79-1.61.96-2.6c.17-.99.15-1.91-.05-2.77-.2-.86-.55-1.62-1.06-2.3-.5-.67-1.14-1.23-1.91-1.68-.77-.44-1.65-.75-2.63-.92-.97-.16-1.89-.16-2.77 0-.88.17-1.67.49-2.37.96-.7.47-1.28 1.08-1.75 1.82s-.79 1.61-.96 2.6c-.17.99-.15 1.91.05 2.77.2.86.55 1.62 1.06 2.3.51.67 1.15 1.24 1.92 1.68s1.65.75 2.62.92ZM40.05 239.67l1.67-6.15 16.64-4.84.02-.06-14.26-3.89 1.23-4.52 20.52 5.59-1.61 5.91-17.05 4.98-.02.06 14.61 3.98-1.23 4.52-20.52-5.59ZM49.84 207.66l1.38-3.62 23.17-1.08-1.88 4.94-4.86.11-2.94 7.72 3.58 3.26-1.84 4.83-16.61-16.16Zm6.42.52 5.26 4.77 1.85-4.86-7.11.09ZM56.21 191.83l1.98-4.25 15.36 7.16 3.67-7.87 3.92 1.83-5.65 12.12-19.28-8.99ZM78.2 161.25c-.61.08-1.18.33-1.71.77s-.95.91-1.25 1.4c-.18.29-.32.61-.44.96s-.19.71-.21 1.07c-.02.36.04.7.17 1.02.14.32.38.58.72.79.55.33 1.09.38 1.63.15.54-.23 1.1-.6 1.69-1.1.58-.5 1.2-1.05 1.84-1.64.64-.6 1.34-1.09 2.09-1.49.75-.4 1.57-.61 2.46-.64.88-.03 1.86.28 2.92.92 1.01.61 1.78 1.33 2.31 2.17s.84 1.72.95 2.66c.11.94.03 1.91-.25 2.91-.28.99-.7 1.96-1.27 2.9-.72 1.18-1.56 2.17-2.53 2.96-.97.79-2.12 1.38-3.46 1.77l-1.41-4.75c.8-.08 1.54-.34 2.21-.79.68-.44 1.22-1 1.62-1.67.2-.33.36-.68.48-1.06s.19-.75.2-1.11c0-.36-.06-.69-.2-1-.14-.31-.38-.56-.7-.76-.55-.33-1.11-.38-1.68-.16-.57.23-1.16.59-1.77 1.09-.61.5-1.24 1.05-1.91 1.65-.67.6-1.38 1.11-2.14 1.51-.76.41-1.58.63-2.45.68s-1.81-.24-2.82-.85c-.98-.59-1.72-1.3-2.22-2.13-.5-.83-.81-1.72-.92-2.66s-.03-1.91.23-2.9.66-1.93 1.2-2.82c.62-1.03 1.37-1.93 2.24-2.72.87-.78 1.88-1.35 3.04-1.71l1.34 4.57Z" class="cls-3"/><path d="M90.66 143.46c-.72.05-1.4.26-2.04.64-.63.38-1.2.92-1.71 1.64a5.9 5.9 0 0 0-1 2.29c-.16.81-.14 1.62.04 2.42.18.8.52 1.57 1.03 2.31a7.93 7.93 0 0 0 1.96 1.96c.82.58 1.66.98 2.51 1.21.86.23 1.69.3 2.5.21s1.57-.33 2.27-.73c.7-.4 1.29-.94 1.78-1.63.56-.79.88-1.6.99-2.43.1-.84 0-1.66-.31-2.47l4.63-1.5a8.1 8.1 0 0 1 .3 4.41c-.31 1.48-.88 2.81-1.73 4-.96 1.36-2.06 2.46-3.29 3.3-1.23.84-2.54 1.4-3.93 1.67-1.38.27-2.8.24-4.26-.09-1.46-.33-2.88-.99-4.27-1.97-1.39-.98-2.48-2.11-3.28-3.37-.8-1.26-1.3-2.59-1.5-3.99-.2-1.4-.11-2.81.27-4.26.38-1.45 1.06-2.85 2.02-4.2.35-.49.75-.97 1.22-1.44.46-.47.98-.89 1.54-1.27s1.17-.68 1.83-.93 1.36-.38 2.1-.42l.32 4.64ZM91.33 133.51l5.3-6.3c.7-.83 1.44-1.55 2.22-2.15.79-.61 1.6-1.03 2.45-1.28a5.35 5.35 0 0 1 2.64-.06c.91.21 1.84.71 2.79 1.51 1.15.97 1.88 2.09 2.18 3.36.3 1.27.08 2.58-.68 3.91l10.35 1.64-3.62 4.3-9.37-2.07-1.49 1.77 6.51 5.47-3.02 3.59-16.28-13.69Zm9.75 2.08 1.78-2.12c.27-.32.55-.67.83-1.05.28-.38.49-.76.62-1.15.13-.39.15-.78.07-1.18-.08-.4-.35-.78-.79-1.16-.41-.35-.82-.54-1.2-.58-.39-.04-.75.02-1.1.17-.35.15-.69.38-1.02.67-.33.3-.63.61-.9.93l-1.97 2.34 3.7 3.11ZM126.91 113.74c.89.89 1.58 1.84 2.07 2.86.48 1.02.74 2.07.76 3.15.03 1.08-.2 2.18-.68 3.28-.48 1.11-1.23 2.18-2.26 3.21-1.04 1.05-2.12 1.82-3.22 2.3-1.1.49-2.2.72-3.28.7a7.743 7.743 0 0 1-3.16-.75c-1.02-.48-1.98-1.16-2.87-2.05l-9.27-9.21 3.3-3.32 9.14 9.09c.47.47.98.82 1.52 1.07.55.25 1.1.38 1.66.4.56.02 1.11-.08 1.64-.29.54-.21 1.02-.54 1.46-.98a4.116 4.116 0 0 0 1.23-3.1c-.02-.56-.16-1.11-.41-1.66-.25-.54-.61-1.05-1.08-1.52l-9.14-9.09 3.3-3.32 9.27 9.21ZM122.19 100.09l5.46-4.53 12.63 7.55.05-.04-5.07-13.83 5.43-4.51 13.58 16.37-3.61 2.99-10.42-12.55-.05.04 6.11 16.12-2.75 2.28-14.55-9.12-.05.04 10.42 12.55-3.61 2.99-13.58-16.37ZM153.88 75.57l6.7-4.2c.93-.58 1.87-1.05 2.81-1.41.94-.35 1.85-.51 2.73-.49.88.03 1.72.28 2.53.75.81.47 1.54 1.25 2.21 2.32.66 1.05 1.04 2.04 1.15 2.97.11.92 0 1.79-.33 2.58-.33.8-.84 1.54-1.55 2.23-.7.69-1.53 1.33-2.48 1.93l-2.9 1.82 4.4 7.03-3.97 2.49-11.29-18.02Zm8.76 5.15 2.65-1.66c.36-.22.68-.47.97-.75.29-.27.51-.58.68-.9s.24-.68.22-1.06c-.01-.38-.15-.78-.42-1.21-.29-.46-.62-.76-1.01-.91s-.79-.19-1.22-.14c-.43.05-.86.19-1.29.4-.43.21-.84.44-1.21.67l-2.04 1.28 2.68 4.28ZM171.38 64.94l7.28-3.85c.96-.51 1.91-.89 2.87-1.16.96-.27 1.87-.36 2.75-.27.88.09 1.7.41 2.47.94s1.44 1.35 2.02 2.45c.7 1.33.95 2.64.76 3.93-.2 1.29-.9 2.42-2.09 3.37l8.98 5.41-4.96 2.63-7.91-5.44-2.04 1.08 3.98 7.51-4.14 2.19-9.95-18.8Zm8.26 5.59 2.44-1.29c.37-.2.76-.42 1.16-.67.4-.25.74-.52 1-.83.27-.31.43-.67.51-1.07.07-.4-.03-.86-.3-1.37-.25-.48-.55-.81-.9-.99-.34-.18-.71-.27-1.09-.26-.38 0-.78.09-1.2.24-.42.15-.81.33-1.18.52l-2.71 1.43 2.26 4.28ZM193.52 65.26c-.64-1.58-.96-3.11-.96-4.61s.3-2.88.88-4.17 1.42-2.44 2.52-3.45c1.1-1.01 2.42-1.83 3.96-2.46 1.54-.63 3.05-.97 4.55-1.01 1.49-.05 2.9.18 4.21.7 1.31.51 2.49 1.3 3.54 2.36 1.05 1.06 1.9 2.38 2.54 3.96.64 1.58.96 3.11.96 4.61 0 1.49-.3 2.88-.88 4.17-.58 1.29-1.42 2.44-2.52 3.45-1.1 1.01-2.42 1.83-3.96 2.46-1.54.63-3.06.97-4.55 1.01-1.5.05-2.9-.18-4.21-.7-1.31-.51-2.49-1.3-3.54-2.36s-1.9-2.38-2.54-3.96Zm4.51-1.84c.38.93.87 1.72 1.47 2.37.6.65 1.29 1.15 2.06 1.5.77.35 1.59.52 2.47.53.88 0 1.78-.18 2.71-.55.93-.38 1.7-.88 2.32-1.5s1.09-1.32 1.39-2.11a6.2 6.2 0 0 0 .42-2.51c-.03-.89-.23-1.79-.61-2.72-.37-.91-.86-1.69-1.46-2.35s-1.29-1.16-2.06-1.51a6.05 6.05 0 0 0-2.47-.53c-.88 0-1.78.18-2.71.56-.93.38-1.7.88-2.32 1.5-.62.62-1.09 1.33-1.39 2.11-.31.79-.44 1.62-.42 2.52.03.9.23 1.8.6 2.71ZM215.86 45.1l6.74-1.99c1.63-.48 3.24-.76 4.81-.83 1.58-.07 3.03.14 4.37.63 1.34.49 2.52 1.3 3.55 2.41 1.03 1.12 1.82 2.61 2.37 4.47.49 1.65.61 3.2.36 4.64s-.78 2.75-1.58 3.92-1.83 2.18-3.08 3.03c-1.25.85-2.64 1.5-4.15 1.95l-7.35 2.17-6.03-20.39Zm9.3 14.92 2.33-.69c1.04-.31 1.97-.7 2.8-1.17.83-.48 1.5-1.05 2.01-1.74.51-.68.83-1.48.97-2.39.14-.91.04-1.94-.3-3.09-.29-1-.74-1.81-1.33-2.44-.59-.63-1.28-1.09-2.05-1.38s-1.63-.43-2.55-.42c-.93.01-1.86.16-2.8.44l-2.65.78 3.58 12.1ZM259.66 47.59c.25 1.24.29 2.41.13 3.53a7.583 7.583 0 0 1-1.12 3.04c-.58.92-1.38 1.7-2.39 2.35-1.01.66-2.24 1.13-3.67 1.42-1.45.29-2.77.33-3.96.12-1.19-.21-2.23-.62-3.12-1.24a7.718 7.718 0 0 1-2.21-2.37c-.58-.96-1-2.07-1.25-3.3l-2.58-12.81 4.59-.93 2.55 12.63c.13.65.35 1.23.67 1.73.32.51.7.93 1.16 1.25.45.33.96.55 1.53.67.57.12 1.15.12 1.76 0 .61-.12 1.15-.35 1.61-.68.46-.33.84-.73 1.14-1.21.29-.48.49-1.01.58-1.6.1-.59.08-1.21-.05-1.86l-2.55-12.63 4.59-.93 2.58 12.81ZM277.64 37.81a4.63 4.63 0 0 0-1.83-1.1c-.7-.22-1.49-.29-2.36-.19-.88.1-1.67.35-2.38.77-.71.42-1.3.96-1.79 1.63-.48.67-.83 1.44-1.05 2.31-.22.87-.27 1.79-.16 2.77.11 1 .36 1.89.76 2.68.4.79.9 1.46 1.5 2.01.6.55 1.29.95 2.05 1.21.76.26 1.56.34 2.4.25.96-.11 1.78-.4 2.47-.88.69-.48 1.24-1.1 1.64-1.87l4.2 2.47c-.76 1.35-1.79 2.4-3.1 3.15s-2.69 1.2-4.14 1.36c-1.65.18-3.2.09-4.65-.28-1.45-.36-2.74-.97-3.86-1.83-1.12-.85-2.04-1.94-2.76-3.25-.72-1.31-1.17-2.81-1.36-4.51-.19-1.69-.07-3.26.35-4.69.42-1.44 1.08-2.69 1.99-3.77.91-1.08 2.03-1.95 3.37-2.62 1.34-.67 2.83-1.1 4.48-1.28.6-.07 1.23-.08 1.88-.04.66.04 1.32.14 1.97.31.65.17 1.29.42 1.91.76.62.34 1.19.77 1.71 1.29l-3.26 3.32ZM289.65 35.71l-6.07.2-.13-4.14 16.81-.54.13 4.14-6.07.2.55 17.11-4.68.15-.55-17.11ZM314.01 31.62l7.9.66c.92.08 1.84.22 2.75.43.92.21 1.73.54 2.43.99.7.45 1.26 1.04 1.66 1.78.4.74.55 1.68.46 2.84-.1 1.2-.52 2.16-1.25 2.89-.74.73-1.67 1.22-2.79 1.47v.06c.69.16 1.3.41 1.85.74.54.34 1 .75 1.37 1.23.37.48.64 1.03.81 1.65.17.62.23 1.27.17 1.94-.09 1.12-.41 2.03-.95 2.74-.54.71-1.21 1.26-2.01 1.66-.8.4-1.68.65-2.64.77-.97.12-1.92.14-2.85.06l-8.68-.73 1.78-21.19Zm3.22 17.63 4.19.35c.36.03.73.02 1.1-.03.38-.05.72-.16 1.04-.33.32-.17.58-.41.8-.72.22-.3.34-.68.38-1.14.04-.5-.05-.91-.27-1.24a2.37 2.37 0 0 0-.88-.78c-.37-.19-.77-.33-1.2-.43-.43-.1-.84-.16-1.22-.19l-3.53-.3-.4 4.82Zm.74-8.77 3.38.28c.36.03.72.02 1.07-.03.36-.05.68-.15.98-.31s.54-.38.73-.66.31-.64.34-1.06c.04-.44-.03-.81-.19-1.12-.17-.3-.39-.55-.68-.73-.29-.19-.62-.33-.99-.43-.37-.1-.74-.17-1.1-.2l-3.17-.27-.38 4.52ZM341.98 34.78l3.83.62 5.73 22.47-5.22-.85-1.09-4.74-8.16-1.32-2.47 4.16-5.1-.83 12.48-19.52Zm.79 6.4-3.61 6.11 5.13.83-1.52-6.94ZM370.94 46.6c-.31-.66-.75-1.21-1.33-1.67-.58-.46-1.29-.79-2.14-1.01-.85-.22-1.69-.25-2.5-.11-.81.15-1.56.44-2.24.9a6.77 6.77 0 0 0-1.79 1.79c-.51.74-.89 1.58-1.13 2.53-.25.97-.32 1.9-.23 2.78.1.88.33 1.69.7 2.41.37.73.87 1.34 1.5 1.85s1.34.87 2.16 1.08c.93.24 1.8.25 2.62.05s1.55-.6 2.19-1.18l3.06 3.79c-1.18 1-2.52 1.62-4.01 1.86-1.49.24-2.94.18-4.36-.18-1.61-.41-3.03-1.04-4.26-1.89-1.23-.85-2.22-1.87-2.97-3.07-.75-1.19-1.23-2.53-1.44-4.01-.21-1.48-.11-3.05.31-4.7.42-1.65 1.08-3.07 1.97-4.27.89-1.2 1.96-2.14 3.19-2.83s2.59-1.11 4.08-1.27c1.49-.16 3.04-.03 4.65.38.58.15 1.17.36 1.78.62.6.27 1.18.6 1.73.99s1.06.85 1.52 1.38c.46.53.85 1.14 1.15 1.81l-4.22 1.96ZM380.68 43.85l4.42 1.55-2.93 8.33 10.72-5.59 5.78 2.03-12.2 6.19 5.92 14.15-6.18-2.17-4.82-12.39-3.35 9.52-4.42-1.55 7.05-20.07ZM402.64 51.85l4.27 1.93-6.99 15.44 7.91 3.58-1.78 3.94-12.18-5.51 8.77-19.38ZM412.51 67.99c.81-1.5 1.8-2.71 2.96-3.65s2.42-1.59 3.79-1.96c1.36-.36 2.78-.44 4.26-.23s2.95.72 4.41 1.51c1.46.8 2.68 1.76 3.66 2.89.98 1.13 1.69 2.36 2.12 3.7.43 1.34.57 2.76.41 4.24s-.65 2.98-1.46 4.47c-.81 1.49-1.8 2.71-2.96 3.65s-2.43 1.59-3.79 1.96c-1.36.36-2.78.44-4.26.23s-2.95-.72-4.41-1.51-2.68-1.76-3.66-2.88-1.69-2.36-2.12-3.7a10.18 10.18 0 0 1-.41-4.24c.16-1.49.65-2.98 1.46-4.47Zm4.27 2.33c-.48.88-.78 1.76-.91 2.64-.12.88-.08 1.72.14 2.54.22.81.6 1.57 1.15 2.25.55.69 1.26 1.27 2.14 1.75.88.48 1.76.76 2.63.85.87.09 1.71 0 2.52-.25.8-.26 1.54-.68 2.21-1.26.67-.58 1.24-1.31 1.72-2.19.47-.86.77-1.74.9-2.62.13-.89.09-1.74-.13-2.55-.22-.81-.6-1.57-1.15-2.25-.55-.69-1.26-1.27-2.14-1.75-.88-.48-1.76-.76-2.63-.85-.88-.09-1.71 0-2.52.25-.8.26-1.54.68-2.22 1.27-.68.59-1.25 1.32-1.72 2.18ZM446.97 99.81c-1.54-.2-3.03-.59-4.44-1.19-1.42-.6-2.77-1.34-4.05-2.23-1.37-.95-2.47-2.04-3.33-3.27-.85-1.23-1.42-2.53-1.7-3.91-.28-1.38-.26-2.8.06-4.26s.97-2.89 1.94-4.29 2.09-2.5 3.35-3.31 2.58-1.32 3.98-1.53c1.39-.21 2.81-.13 4.26.24 1.45.37 2.85 1.04 4.22 1.99 1.4.97 2.57 2.04 3.51 3.19s1.57 2.45 1.88 3.89l-4.77 1.07c-.15-.91-.46-1.73-.92-2.47-.46-.74-1.19-1.45-2.17-2.13-.82-.57-1.66-.95-2.52-1.13-.86-.18-1.7-.19-2.53-.02-.83.17-1.61.51-2.34 1.02-.74.51-1.38 1.17-1.94 1.98-.57.82-.97 1.66-1.19 2.52s-.27 1.71-.14 2.54c.13.83.43 1.62.9 2.36.47.74 1.12 1.4 1.94 1.97.84.58 1.63.99 2.37 1.23.74.23 1.36.38 1.86.43l1.97-2.83-3.13-2.18 2.47-3.55 6.83 4.75-6.35 9.12ZM470.7 93.34l5.23 4.78-5.75 13.55.04.04 13-6.92 5.21 4.76-14.35 15.7-3.46-3.16 11-12.04-.04-.04-15.13 8.27-2.64-2.41 7.03-15.67-.04-.04-11 12.04-3.46-3.16 14.35-15.7ZM497.61 119.7l2.56 2.91-9.83 21.01-3.5-3.96 2.17-4.36-5.47-6.19-4.55 1.65-3.42-3.87 22.03-7.18Zm-3.45 5.45-6.66 2.44 3.44 3.9 3.23-6.33ZM508.94 132.67l3.74 5.15-6.65 16 .04.05 11.96-8.68 2.75 3.79-17.21 12.49-3.6-4.96 6.8-16.41-.04-.05-12.25 8.89-2.75-3.79 17.21-12.49ZM527.77 160.11l2.01 3.32-13.4 18.93-2.74-4.52 2.91-3.9-4.28-7.07-4.77.82-2.68-4.42 22.96-3.15Zm-4.36 4.75-6.99 1.21 2.69 4.45 4.3-5.66ZM527.07 201.11c-1.25-.93-2.34-2-3.28-3.22-.94-1.21-1.75-2.53-2.42-3.93-.72-1.5-1.15-2.99-1.29-4.48-.14-1.49 0-2.9.44-4.25.43-1.34 1.15-2.57 2.15-3.68 1-1.11 2.26-2.04 3.8-2.78 1.53-.74 3.05-1.15 4.54-1.23 1.49-.08 2.9.12 4.22.62s2.52 1.27 3.59 2.31c1.08 1.04 1.98 2.3 2.7 3.8.74 1.53 1.23 3.04 1.48 4.5.25 1.47.16 2.91-.28 4.32l-4.68-1.42c.32-.87.46-1.73.42-2.6-.04-.87-.32-1.85-.84-2.93-.43-.9-.98-1.64-1.64-2.23-.66-.58-1.39-1-2.19-1.26s-1.65-.34-2.54-.26c-.89.08-1.78.34-2.67.76-.9.43-1.66.97-2.28 1.61-.62.64-1.07 1.35-1.37 2.14-.3.79-.43 1.62-.38 2.5.04.88.28 1.77.72 2.67.44.92.93 1.67 1.46 2.23.53.57 1 1 1.4 1.29l3.11-1.5-1.65-3.44 3.9-1.88 3.61 7.5-10.02 4.82ZM547.23 198.1l5.14 13.5-4.04 1.54-3.47-9.12-3.71 1.41 3.28 8.62-4.04 1.54-3.28-8.62-4.04 1.54 3.66 9.63-4.04 1.54-5.33-14.01 19.88-7.56ZM554.58 217.61l1.86 6.84-12.1 8.37.02.06 14.69 1.11 1.86 6.81-20.52 5.59-1.23-4.52 15.74-4.29-.02-.06-17.21-1.1-.94-3.45 14.32-9.48-.02-.06-15.74 4.29-1.23-4.52 20.52-5.59ZM562.12 246.9l2.59 14.22-4.26.77-1.75-9.61-3.9.71 1.65 9.07-4.26.77-1.65-9.07-4.26.77 1.84 10.14-4.26.77-2.68-14.75 20.92-3.81ZM565.7 267.25l.59 6.34-13.87 10.38v.06l14.72-1.38.44 4.67-21.18 1.98-.57-6.1 14.21-10.65v-.06l-15.08 1.41-.44-4.67 21.18-1.98ZM563.64 297.68l-.04-6.07 4.15-.03.1 16.82-4.15.03-.04-6.07-17.12.11-.03-4.69 17.12-.11ZM561.11 331.68c.52-.33.92-.82 1.21-1.44.29-.63.46-1.23.52-1.81.03-.34.03-.69-.02-1.06-.05-.37-.14-.72-.28-1.05-.14-.33-.34-.62-.6-.84-.26-.22-.59-.36-.99-.39-.64-.06-1.15.13-1.53.58-.38.45-.73 1.02-1.04 1.73-.31.71-.62 1.46-.94 2.28-.32.82-.73 1.57-1.24 2.25s-1.15 1.24-1.93 1.64c-.78.41-1.79.56-3.03.44-1.18-.11-2.18-.43-3.02-.95-.84-.52-1.51-1.18-2.02-1.98s-.86-1.71-1.04-2.72a11.43 11.43 0 0 1-.13-3.16c.13-1.38.46-2.63.99-3.77.53-1.14 1.31-2.17 2.34-3.1l3.34 3.66c-.68.42-1.23.97-1.65 1.67-.42.7-.66 1.43-.74 2.21-.04.38-.03.77.03 1.16.05.4.16.76.31 1.08.15.33.36.6.62.81.26.21.58.34.96.38.64.06 1.16-.14 1.58-.59.41-.45.79-1.04 1.11-1.75.33-.71.66-1.49 1-2.32.34-.83.76-1.6 1.27-2.3a5.69 5.69 0 0 1 1.91-1.67c.76-.42 1.73-.58 2.91-.47 1.14.11 2.11.42 2.93.95.81.53 1.48 1.19 1.99 2 .51.8.86 1.7 1.06 2.71.2 1 .25 2.02.15 3.06-.11 1.2-.39 2.33-.83 3.42a8.035 8.035 0 0 1-1.99 2.86l-3.2-3.53ZM565.41 340.7l-.78 4.62-8.71-1.47 7.33 9.62-1.02 6.04-8.17-10.98-12.94 8.23 1.09-6.46 11.4-6.85-9.95-1.68.78-4.62 20.97 3.55ZM561.33 363.06l-1.07 4.56-20.71-4.83 1.07-4.56 20.71 4.83ZM558.85 373l-1.29 4.51-16.29-4.65-2.38 8.35-4.16-1.19 3.67-12.85 20.45 5.84ZM554.05 389.69l-1.56 4.42-15.98-5.64-2.89 8.19-4.08-1.44 4.45-12.61 20.06 7.08ZM539.1 413.68c.59-.16 1.13-.49 1.6-.99.47-.5.82-1.02 1.06-1.55a4.574 4.574 0 0 0 .38-2.1c-.03-.36-.13-.69-.31-.99-.18-.3-.45-.52-.82-.68-.59-.26-1.13-.23-1.64.07-.51.3-1.01.74-1.53 1.32-.51.57-1.05 1.2-1.6 1.87-.56.68-1.18 1.26-1.88 1.75s-1.48.81-2.35.96c-.87.14-1.88-.03-3.01-.53-1.08-.47-1.94-1.09-2.57-1.85-.63-.76-1.06-1.6-1.29-2.52-.23-.92-.28-1.89-.14-2.91.14-1.02.43-2.04.87-3.04.55-1.27 1.26-2.36 2.12-3.27.86-.92 1.92-1.65 3.19-2.21l2.02 4.52c-.78.18-1.48.54-2.09 1.07-.61.53-1.08 1.15-1.39 1.87-.15.35-.27.72-.34 1.11-.07.39-.09.77-.05 1.13.04.36.15.68.33.96s.45.51.79.66c.59.26 1.15.23 1.69-.07.54-.3 1.07-.74 1.61-1.31.54-.58 1.09-1.21 1.68-1.89.58-.69 1.23-1.28 1.93-1.78s1.48-.83 2.34-1c.86-.16 1.83 0 2.91.47 1.05.46 1.87 1.06 2.48 1.82.61.76 1.03 1.6 1.26 2.52.23.92.28 1.89.16 2.9-.13 1.01-.4 2-.82 2.95-.48 1.1-1.1 2.1-1.86 2.99-.76.89-1.69 1.59-2.78 2.1l-1.93-4.35ZM542.15 428.42l-.76 1.49-4.26-.43-.02.04 2.84 3.2-.76 1.48-4.63-2.36.5-.97 3.86 1.97v-.03l-3.08-3.47.4-.79 4.63.48v-.02l-3.85-1.97.5-.97 4.63 2.36Zm1.05-3.88.79-1.55.74.38-2.08 4.07-.74-.38.79-1.55-3.89-1.99.5-.97 3.89 1.99Z" class="cls-3"/><path d="M80.7 264.32h34.24c4.77 0 9.29.44 13.54 1.3 4.25.87 7.96 2.37 11.13 4.49 3.17 2.13 5.68 4.99 7.55 8.59 1.87 3.6 2.8 8.14 2.8 13.6s-.87 9.89-2.6 13.54c-1.74 3.64-4.12 6.55-7.16 8.72-3.04 2.17-6.64 3.71-10.8 4.62s-8.68 1.37-13.54 1.37h-14.84v35.93H80.71v-92.17Zm20.31 39.05h13.54c1.82 0 3.58-.17 5.27-.52 1.69-.35 3.21-.93 4.56-1.76 1.34-.82 2.43-1.95 3.25-3.38.82-1.43 1.24-3.23 1.24-5.4 0-2.34-.54-4.23-1.63-5.66-1.09-1.43-2.47-2.54-4.17-3.32s-3.58-1.28-5.66-1.5a57.05 57.05 0 0 0-5.99-.33h-10.41v21.87ZM208.27 286.84c-1.65-2.08-3.88-3.62-6.7-4.62-2.82-1-5.49-1.5-8.01-1.5-1.48 0-2.99.17-4.56.52-1.56.35-3.04.89-4.43 1.63-1.39.74-2.52 1.71-3.38 2.93-.87 1.22-1.3 2.69-1.3 4.43 0 2.78 1.04 4.9 3.12 6.38 2.08 1.48 4.71 2.73 7.88 3.77s6.57 2.08 10.22 3.12c3.65 1.04 7.05 2.52 10.22 4.43 3.17 1.91 5.79 4.47 7.88 7.68 2.08 3.21 3.12 7.51 3.12 12.89s-.96 9.59-2.86 13.41c-1.91 3.82-4.49 6.99-7.75 9.5-3.25 2.52-7.03 4.38-11.33 5.6-4.3 1.21-8.83 1.82-13.6 1.82-5.99 0-11.54-.91-16.66-2.73-5.12-1.82-9.89-4.77-14.32-8.85l14.45-15.88c2.08 2.78 4.71 4.93 7.88 6.44 3.17 1.52 6.44 2.28 9.83 2.28 1.65 0 3.32-.2 5.01-.59s3.21-.98 4.56-1.76c1.34-.78 2.43-1.78 3.25-2.99.82-1.21 1.24-2.65 1.24-4.3 0-2.78-1.06-4.97-3.19-6.57-2.13-1.6-4.8-2.97-8.01-4.1a234.52 234.52 0 0 0-10.41-3.38c-3.73-1.13-7.21-2.65-10.42-4.56-3.21-1.91-5.88-4.43-8.01-7.55s-3.19-7.25-3.19-12.37.98-9.29 2.93-13.02c1.95-3.73 4.56-6.85 7.81-9.37 3.25-2.52 7.01-4.4 11.26-5.66 4.25-1.26 8.63-1.89 13.15-1.89 5.21 0 10.24.74 15.1 2.21 4.86 1.48 9.24 3.95 13.15 7.42l-13.93 15.23ZM237.43 264.32h34.24c4.77 0 9.29.44 13.54 1.3 4.25.87 7.96 2.37 11.13 4.49 3.17 2.13 5.68 4.99 7.55 8.59 1.87 3.6 2.8 8.14 2.8 13.6s-.87 9.89-2.6 13.54c-1.74 3.64-4.12 6.55-7.16 8.72-3.04 2.17-6.64 3.71-10.8 4.62s-8.68 1.37-13.54 1.37h-14.84v35.93h-20.31v-92.17Zm20.31 39.05h13.54c1.82 0 3.58-.17 5.27-.52 1.69-.35 3.21-.93 4.56-1.76 1.34-.82 2.43-1.95 3.25-3.38.82-1.43 1.24-3.23 1.24-5.4 0-2.34-.54-4.23-1.63-5.66-1.09-1.43-2.47-2.54-4.17-3.32s-3.58-1.28-5.66-1.5a57.05 57.05 0 0 0-5.99-.33h-10.41v21.87ZM319.43 264.32h34.37c3.99 0 8.01.28 12.04.85 4.04.57 7.66 1.69 10.87 3.38 3.21 1.69 5.81 4.06 7.81 7.09 2 3.04 2.99 7.07 2.99 12.11s-1.45 9.53-4.36 12.95c-2.91 3.43-6.75 5.88-11.52 7.35v.26c3.04.43 5.79 1.28 8.27 2.54 2.47 1.26 4.6 2.86 6.38 4.82 1.78 1.95 3.14 4.23 4.1 6.83.95 2.6 1.43 5.38 1.43 8.33 0 4.86-1.04 8.92-3.12 12.17a24.606 24.606 0 0 1-8.07 7.88c-3.3 2-7.01 3.43-11.13 4.3-4.12.87-8.22 1.3-12.3 1.3h-37.75v-92.17Zm20.31 36.84h14.71c1.56 0 3.1-.17 4.62-.52s2.88-.91 4.1-1.69a8.871 8.871 0 0 0 2.93-3.12c.74-1.3 1.11-2.86 1.11-4.69s-.41-3.49-1.24-4.75a8.7 8.7 0 0 0-3.19-2.93c-1.3-.69-2.78-1.19-4.43-1.5-1.65-.3-3.25-.46-4.82-.46h-13.8v19.66Zm0 38.14h18.22c1.56 0 3.14-.17 4.75-.52 1.6-.35 3.06-.95 4.36-1.82 1.3-.87 2.36-2 3.19-3.38.82-1.39 1.24-3.08 1.24-5.08 0-2.17-.54-3.92-1.63-5.27-1.09-1.34-2.45-2.36-4.1-3.06a21.19 21.19 0 0 0-5.34-1.43c-1.91-.26-3.69-.39-5.34-.39h-15.36v20.96ZM403.79 264.32h30.72l21.22 60.14h.26l21.35-60.14h30.59v92.17h-20.31V285.8h-.26l-24.21 70.69h-15.49l-23.3-70.69h-.26v70.69h-20.31v-92.17ZM207.94 398.02c-.91-1.15-2.15-2.01-3.71-2.56-1.56-.55-3.04-.83-4.43-.83-.82 0-1.66.1-2.52.29-.87.19-1.68.49-2.45.9-.77.41-1.39.95-1.88 1.62-.48.67-.72 1.49-.72 2.45 0 1.54.58 2.72 1.73 3.53 1.15.82 2.61 1.51 4.36 2.09 1.75.58 3.64 1.15 5.66 1.73s3.9 1.39 5.66 2.45c1.75 1.06 3.21 2.48 4.36 4.25 1.15 1.78 1.73 4.16 1.73 7.14s-.53 5.31-1.59 7.43-2.49 3.87-4.29 5.26c-1.8 1.39-3.89 2.43-6.27 3.1-2.38.67-4.89 1.01-7.53 1.01-3.32 0-6.39-.5-9.23-1.51-2.84-1.01-5.48-2.64-7.93-4.9l8-8.8c1.15 1.54 2.61 2.73 4.36 3.57 1.75.84 3.57 1.26 5.44 1.26.91 0 1.84-.11 2.78-.33.94-.22 1.78-.54 2.52-.97.74-.43 1.34-.98 1.8-1.66.46-.67.69-1.47.69-2.38 0-1.54-.59-2.75-1.77-3.64-1.18-.89-2.66-1.65-4.43-2.27-1.78-.62-3.7-1.25-5.77-1.87-2.07-.62-3.99-1.47-5.77-2.52a13.82 13.82 0 0 1-4.43-4.18c-1.18-1.73-1.77-4.01-1.77-6.85s.54-5.14 1.62-7.21c1.08-2.07 2.52-3.8 4.33-5.19 1.8-1.39 3.88-2.44 6.24-3.14 2.35-.7 4.78-1.04 7.28-1.04 2.88 0 5.67.41 8.36 1.23 2.69.82 5.12 2.19 7.28 4.11l-7.71 8.44ZM224.52 385.54h11.25v21.2l19.83-21.2h14.71l-22.71 23.72 24.66 27.33h-15.72l-20.76-24.22v24.22h-11.25v-51.04ZM276 385.54h11.25v51.04H276v-51.04ZM297.92 385.54h11.25v40.66h20.84v10.38h-32.08v-51.04ZM336.63 385.54h11.25v40.66h20.84v10.38h-32.08v-51.04ZM400.15 398.02c-.91-1.15-2.15-2.01-3.71-2.56-1.56-.55-3.04-.83-4.43-.83-.82 0-1.66.1-2.52.29-.87.19-1.68.49-2.45.9-.77.41-1.39.95-1.88 1.62-.48.67-.72 1.49-.72 2.45 0 1.54.58 2.72 1.73 3.53 1.15.82 2.61 1.51 4.36 2.09 1.75.58 3.64 1.15 5.66 1.73s3.9 1.39 5.66 2.45c1.75 1.06 3.21 2.48 4.36 4.25 1.15 1.78 1.73 4.16 1.73 7.14s-.53 5.31-1.59 7.43-2.49 3.87-4.29 5.26c-1.8 1.39-3.89 2.43-6.27 3.1-2.38.67-4.89 1.01-7.53 1.01-3.32 0-6.39-.5-9.23-1.51-2.84-1.01-5.48-2.64-7.93-4.9l8-8.8c1.15 1.54 2.61 2.73 4.36 3.57 1.75.84 3.57 1.26 5.44 1.26.91 0 1.84-.11 2.78-.33.94-.22 1.78-.54 2.52-.97.74-.43 1.34-.98 1.8-1.66.46-.67.69-1.47.69-2.38 0-1.54-.59-2.75-1.77-3.64-1.18-.89-2.66-1.65-4.43-2.27-1.78-.62-3.7-1.25-5.77-1.87-2.07-.62-3.99-1.47-5.77-2.52a13.82 13.82 0 0 1-4.43-4.18c-1.18-1.73-1.77-4.01-1.77-6.85s.54-5.14 1.62-7.21c1.08-2.07 2.52-3.8 4.33-5.19 1.8-1.39 3.88-2.44 6.24-3.14 2.35-.7 4.78-1.04 7.28-1.04 2.88 0 5.67.41 8.36 1.23 2.69.82 5.12 2.19 7.28 4.11l-7.71 8.44Z" class="cls-1"/><path d="M31 33.27h17.13v5.8H31z" class="cls-2"/><path d="M153.77 175.84c.66-3.03 1.89-5.95 3.51-8.55 1.62-2.6 3.63-4.87 5.78-6.75-1.73 1.5-3.26 3.2-4.59 5.05a23.788 23.788 0 0 1 7.14-6.55c-.35.4-1 .9-1.57 1.39-.57.49-1.06.98-1.14 1.29-3.01 2.73-5.53 6.03-7.31 9.71-1.79 3.67-2.85 7.72-3.02 11.81-.43-1.63-.22-2.98.11-4.14.35-1.17.83-2.15 1.1-3.25M173.94 155.5c-.78.25-1.53.51-2.26.8.77-.34 1.54-.63 2.26-.8M183.46 208.94c.84-.09 1.67-.22 2.47-.35-.79.2-1.63.29-2.47.35M155.06 186.4l.36 1.36c.52 3.49 1.7 6.95 3.58 10.13-1.04-1.71-2.01-3.55-2.73-5.49-.72-1.94-1.18-3.99-1.21-6" class="cls-4"/><path d="M155.64 182.58c.02-3.52 1-7.08 2.66-9.93-1.59 2.88-2.53 6.35-2.66 9.93M200.82 194.01c-.07-.03-.09-.1-.09-.19.03-.08.04-.16.04-.24.64-.95 1.22-1.96 1.71-3-.07.28-.04.58-.15.85-.3.57-.56.88-.8 1.21-.24.33-.46.69-.71 1.36M182.53 209l-.09.04c-.29.02-.57.04-.86.05l-.1-.03c.35-.03.69-.05 1.05-.06" class="cls-4"/><path d="M200 195.23c-.12-.06-.25-.11-.39-.09.41-.5.79-1.02 1.15-1.55-.01.08-.03.16-.03.23-.13.43-.61.92-.73 1.41M187.97 202.75c-.38.12-.65.47-.82.58-1.06.07-2.1.08-3.3.07-.18.09-.57.12-.94.27-.23-.1-.46-.19-.71-.27 2.62.04 5.34-.43 7.96-1.42-.68.31-1.41.58-2.18.77" class="cls-4"/><path d="M175.82 159.61c2.01-.65 4.3-.85 6.54-.76 2.25.08 4.43.41 6.51.63-2.27-.9-5.17-1.41-7.61-1.54-2.43-.16-4.39-.03-4.9-.52-.52-.47 1.25-.99 3.69-1.08 1.22-.04 2.58.03 3.89.19s2.55.4 3.55.6q-.51-.23-1.02-.44c.52.21 1.02.43 1.53.41-.5-.24-1.27-.52-1.99-.76s-1.4-.46-1.7-.68c.34-.07.68-.13 1.03-.18-1.39-.61-3.52-.98-5.69-1.04-2.17-.08-4.36.13-5.97.16 3.81-.4 7.89-.38 12 .42 4.1.79 8.22 2.37 11.9 4.82 3.68 2.44 6.91 5.77 9.18 9.69 2.28 3.91 3.58 8.35 3.77 12.73.7 9.79-3.16 19.32-9.99 25.77-.66.58-1.89 1.46-3.35 2.24-1.46.8-3.14 1.49-4.58 1.94-4.95 1.99-10.46 2.68-15.88 2.19-5.76-.73-11.16-3.34-15.49-7.2-4.35-3.87-7.65-9.03-9.5-14.9-.38-1.17-.42-2.66-.17-3.1.12-.22.31-.19.56.25.26.44.57 1.28 1.08 2.63 1.79 4.45 4.42 8.55 7.79 11.94-.33-.07-.85-.55-1.38-1.12-.53-.56-1.07-1.21-1.5-1.56.99 1.49 2.05 2.76 3.21 3.91 1.16 1.15 2.43 2.18 3.91 3.15-1.97-1.29-3.8-2.8-5.43-4.51 2.04 2.14 4.48 4.1 7.24 5.66 2.76 1.55 5.84 2.69 9 3.23 1.15.22 2.2.67 3.42.96 1.21.29 2.62.43 4.28-.07-4.23.02-8.48-.88-12.36-2.55-3.89-1.67-7.42-4.11-10.39-7.1.02 0 .03.01.05 0-2.68-2.64-4.58-5.55-6.07-8.84.5 1.01 1.09 1.99 1.54 2.88-2.37-4.72-3.65-9.8-3.61-14.94.32 3.61 1.19 7.21 2.66 10.6 1.46 3.39 3.54 6.56 6.15 9.24 2.6 2.68 5.73 4.85 9.13 6.32 3.39 1.47 7.06 2.22 10.61 2.2-1.98-.35-4.27-.58-6.46-1.12-2.18-.52-4.25-1.35-5.6-2.47 5.68 2.94 12.39 3.99 18.91 2.69l-1.4.44c2.08-.13 4.18-.7 6.16-1.54 1.98-.84 3.84-1.94 5.57-3.09.31-.21.62-.41.92-.63l-.92.63c-3.2 2.1-6.74 3.5-10.32 4.2 1.61-.5 3.3-1.02 5.28-1.8-1.15.24-2.72.71-4.33 1.02-2.07.53-4.21.82-6.33.84 3.28-.11 6.45-1 9.05-2.32-4.14 1.34-8.67 1.9-12.95 1.23 2.36.24 4.74.16 7.07-.24 3.93-.46 7.81-1.82 11.22-4.06l-.38.28c.26-.17.51-.35.76-.53 1.32-.9 2.56-1.92 3.7-3.07 1-1.05 1.8-2.25 2.45-3.49l.4-.58c-.16.43-.18.68.35 0 1.17-1.46 2.04-3.23 2.71-5.12.68-1.89 1.19-3.9 1.71-5.99.28-1.1.34-2.64.21-4.28.08-.45 0-.68-.09-.89-.04-.35-.09-.7-.14-1.06-.1-.86-.23-1.73-.47-2.54.17.82.34 1.68.47 2.54l.1.97c-.11-.22-.24-.44-.29-.92.24 2.96-.03 6.01-.81 8.95a28.55 28.55 0 0 1-3.74 8.34c.13-.36.33-.85.38-1.07-.23.56-.5 1.11-.78 1.65a29.381 29.381 0 0 1-3.88 4.54c.4-.44.73-.9.97-1.34-2 1.98-4.3 3.66-6.81 4.97-2.51 1.3-5.23 2.22-8.04 2.7-5.32.64-10.69-.42-15.29-2.8 2.36 1.53 5.22 2.59 8.23 3.04-4.03-.4-7.98-1.77-11.4-3.99-3.42-2.21-6.28-5.27-8.2-8.81 1.09 1.04 2.51 2.42 3.49 2.72.14-.2-1.27-2.18-.28-1.16 1.87 1.79 3.5 3.21 5 4.19 1.5.98 2.86 1.49 4.07 1.28.25-.1-.66-1.06-1.29-1.99-.64-.93-1.03-1.77-.31-1.43 1.16.66 3.26 1.76 5.68 2.44.68.26 1.4.48 2.16.65.09.05.27 0 .48-.06 2.68.45 5.26.28 6.68.15.53-.04 1.06-.11 1.58-.19.29.02.54.06.76.15.3-.18.61-.35.91-.5 1.38-.35 2.71-.85 3.97-1.49.75-.26 1.49-.55 2.2-.92-.07-.07-.24-.1-.17-.26 1.47-.98 2.8-2.15 3.96-3.47.55-.46 1.1-.88 1.64-1.23.23-1.04 1.01-2.4 1.71-3.99.71-1.57 1.34-3.36 1.54-4.89h-.03c.28-1.52.4-3.08.35-4.66.07-.26.15-.52.24-.76-.17-.38-.23-.79-.32-.97-.05-1.27-.11-2.36-.25-3.46-.12-.17-.49-.45-.63-.84-.24-.8-.56-1.55-.91-2.25-.37-.84-.79-1.68-1.27-2.5a23.399 23.399 0 0 0-6.37-7.07c-.03-.14.02-.27.07-.4-.52-.12-1.06-.59-1.51-.71.1 0 .17-.02.19-.09-.71-.25-1.1-.45-1.46-.68-.36-.23-.69-.49-1.31-.78-.29-.1-.6-.06-.9-.12-.14-.06-.27-.11-.41-.17-1.3-1.01-2.9-1.13-4.6-1.28-1.7-.29-3.45-.4-5.21-.3-1.39.11-2-.14-3.02-.14" class="cls-4"/><path d="M202.66 190.19a22.23 22.23 0 0 0 1.44-4.33c-.22 1.62-.4 3.14-1.44 4.33M169.45 199.44a14 14 0 0 0-1.08-1.64c2.58 2.48 5.85 4.24 9.4 5.06v.03c-1.45-.25-3.13-.93-4.59-1.68-1.47-.74-2.74-1.53-3.73-1.78M200.73 193.82c0-.07.02-.14.03-.23v-.01c0 .08 0 .16-.04.24M160.44 197.02l-.23-.38c.64.92 1.33 1.81 2.07 2.65-.64-.63-1.27-1.41-1.84-2.27M156.81 185.68c-.28-2.25-.26-4.54.07-6.79.58-2.87 1.72-5.57 3.3-7.76-2.49 4.31-3.74 9.42-3.37 14.56M164.99 194.06c-.31-.69-.55-1.41-.76-2.14.3.68.65 1.34 1.03 1.97-.15-.07-.2.1-.27.16M167.02 203.61l-.54-.4c.51.29 1.03.56 1.56.81-.21-.06-.67-.27-1.01-.4M162.73 186.48c.06.54.14 1.07.25 1.6-.13-.3-.28-.59-.45-.89.1-.2.15-.45.19-.72M163.02 178.18c.19-.71.43-1.39.71-2.02-.27.81-.49 1.65-.67 2.49-.05-.21-.09-.38-.04-.47" class="cls-4"/><path d="M169.53 144.22c2.21.95 4.25 2.32 5.99 3.94 1.74 1.62 3.18 3.48 4.28 5.4-.89-1.53-1.96-2.96-3.16-4.24.91.96 1.65 1.94 2.29 2.99.64 1.05 1.18 2.16 1.64 3.42-.25-.33-.53-.89-.82-1.4-.29-.5-.59-.95-.81-1.05-1.63-2.7-3.77-5.1-6.31-7.01a23.276 23.276 0 0 0-8.54-4.05c1.3-.09 2.3.27 3.13.7.84.44 1.52.95 2.32 1.32M182.04 162.59c-.07-.63-.16-1.24-.27-1.84.15.63.25 1.27.27 1.84M139.93 161.92c-.05.65-.08 1.3-.1 1.93-.04-.63.02-1.28.1-1.93M161.3 143.64l-1.09.08c-2.73-.12-5.55.27-8.24 1.23 1.46-.53 3-1.01 4.59-1.27 1.58-.26 3.21-.31 4.75-.03" class="cls-5"/><path d="M164.13 144.64c2.68.53 5.24 1.81 7.17 3.5-1.96-1.63-4.46-2.87-7.17-3.5M148.73 177.35s.09-.05.16-.04c.06.03.12.06.18.06.63.63 1.31 1.22 2.03 1.75-.21-.09-.44-.12-.63-.24-.39-.32-.58-.56-.8-.79a4.56 4.56 0 0 0-.93-.75M140.03 161.2l-.02-.07c.03-.22.05-.44.09-.66l.03-.08c-.03.27-.07.54-.11.81" class="cls-5"/><path d="M147.92 176.54c.06-.08.12-.17.13-.28.32.38.66.75 1.01 1.11-.06-.02-.12-.04-.17-.05-.3-.16-.61-.6-.97-.77M143.98 166.27c-.04-.31-.26-.56-.32-.71.1-.82.25-1.61.44-2.52-.04-.15 0-.45-.07-.76.11-.16.21-.33.31-.5-.42 1.99-.46 4.13-.1 6.27-.13-.57-.23-1.16-.27-1.78" class="cls-5"/><path d="M178.62 163.41c.2 1.62 0 3.4-.39 5.09-.39 1.7-.97 3.31-1.44 4.86 1.02-1.59 1.84-3.73 2.3-5.57.48-1.83.68-3.34 1.13-3.65.44-.32.57 1.1.27 2.97-.15.93-.4 1.96-.72 2.93-.31.97-.68 1.88-.98 2.62.25-.35.25-.35.49-.71-.24.36-.48.72-.54 1.1.26-.35.58-.89.87-1.41.29-.51.56-1 .77-1.19 0 .27 0 .54-.01.81.67-.97 1.26-2.53 1.64-4.18.38-1.64.54-3.34.77-4.57-.26 2.96-.88 6.06-2.1 9.07-1.21 3.01-3.02 5.91-5.44 8.35-2.4 2.44-5.42 4.41-8.74 5.55-3.31 1.15-6.89 1.49-10.25.98-7.56-.91-14.24-5.27-18.15-11.42-.34-.59-.83-1.66-1.21-2.89-.39-1.23-.66-2.61-.8-3.77-.78-4.07-.49-8.36.68-12.41 1.41-4.28 4.19-8 7.78-10.73 3.59-2.74 8.01-4.49 12.75-5.03.95-.12 2.09.07 2.39.33.15.13.1.26-.28.39-.37.13-1.06.24-2.16.43-3.65.7-7.17 2.1-10.25 4.16.1-.23.54-.57 1.06-.89.51-.32 1.08-.64 1.41-.91-1.28.54-2.4 1.15-3.45 1.86-1.05.71-2.02 1.53-2.98 2.51 1.27-1.31 2.69-2.48 4.24-3.47-1.93 1.23-3.79 2.8-5.38 4.68a22.123 22.123 0 0 0-3.8 6.38c-.34.84-.83 1.57-1.24 2.46-.4.88-.72 1.93-.58 3.27.61-3.23 1.92-6.33 3.77-9.03 1.85-2.71 4.23-5.04 6.95-6.86 0 .01-.02.03-.02.04 2.41-1.65 4.9-2.66 7.63-3.32-.84.23-1.68.53-2.42.75 3.94-1.1 8-1.33 11.91-.53-2.8-.29-5.67-.16-8.47.45-2.8.61-5.52 1.72-7.95 3.31-2.42 1.59-4.55 3.65-6.17 6.02-1.62 2.37-2.74 5.04-3.25 7.76.56-1.46 1.08-3.16 1.81-4.75.72-1.58 1.65-3.04 2.71-3.9-3.07 3.89-4.87 8.84-4.85 14l-.13-1.13c-.21 1.6-.08 3.28.26 4.91.34 1.64.91 3.21 1.53 4.7.11.27.22.53.34.8l-.34-.8a22.55 22.55 0 0 1-1.67-8.48c.15 1.3.29 2.66.59 4.28-.01-.91-.14-2.18-.14-3.45-.1-1.66 0-3.33.3-4.95-.4 2.51-.2 5.06.42 7.24-.41-3.35-.16-6.88.98-10.04-.53 1.76-.82 3.59-.86 5.42-.23 3.06.23 6.22 1.43 9.15l-.16-.33c.09.22.19.44.29.66.49 1.13 1.09 2.23 1.79 3.27.65.92 1.44 1.7 2.29 2.38l.39.39c-.3-.18-.49-.24-.05.27.94 1.1 2.16 2.03 3.5 2.82 1.34.8 2.79 1.48 4.31 2.19.8.37 1.96.65 3.23.79.33.12.52.11.69.06.27.02.55.04.83.05.67.06 1.35.08 2.01.02-.65 0-1.33 0-2.01-.02l-.75-.07c.18-.05.37-.12.74-.09a20.7 20.7 0 0 1-6.69-1.94c-2.12-1.02-4.09-2.42-5.8-4.08.26.15.6.37.76.45-.39-.26-.77-.54-1.14-.84a23.563 23.563 0 0 1-2.88-3.63c.28.37.58.69.87.94a21.787 21.787 0 0 1-2.77-5.92c-.62-2.1-.92-4.31-.86-6.52.3-4.15 1.9-8.08 4.4-11.23-1.52 1.57-2.74 3.59-3.53 5.82.9-3.01 2.53-5.81 4.73-8.09 2.18-2.28 4.94-4 7.92-4.94-.95.68-2.22 1.55-2.59 2.26.13.13 1.85-.64.92-.04-1.64 1.15-2.96 2.19-3.93 3.18-.97.99-1.56 1.96-1.58 2.91.04.21.91-.34 1.71-.69.8-.35 1.5-.52 1.13-.02-.67.78-1.82 2.22-2.7 3.97-.3.48-.57 1-.81 1.55-.05.06-.04.2-.03.38-.74 1.97-.99 3.96-1.11 5.06-.05.41-.07.82-.09 1.23-.06.22-.13.41-.23.56.1.26.18.51.25.77.06 1.11.25 2.19.55 3.24.09.61.2 1.22.37 1.81.06-.04.11-.17.22-.09a15.6 15.6 0 0 0 2.06 3.53c.27.49.51.97.69 1.43.76.33 1.68 1.12 2.79 1.89 1.09.78 2.36 1.52 3.5 1.9v-.02c1.12.44 2.29.76 3.5.95.19.09.37.19.54.29.32-.07.63-.06.79-.1.97.15 1.81.26 2.67.32.15-.07.41-.31.73-.36.65-.07 1.26-.2 1.85-.36.7-.16 1.4-.35 2.09-.6 2.34-.82 4.5-2.11 6.32-3.8.11 0 .2.06.29.11.17-.38.6-.72.76-1.04-.01.07 0 .13.04.16.29-.5.51-.77.74-1.01.23-.24.47-.46.78-.88.12-.21.14-.45.22-.66.07-.1.13-.19.19-.29.96-.84 1.29-2.04 1.66-3.32.47-1.25.81-2.57 1-3.93.13-1.07.41-1.5.55-2.28" class="cls-5"/><path d="M151.36 179.31c.96.68 1.99 1.26 3.09 1.74-1.2-.41-2.33-.77-3.09-1.74M149.24 152.66c.46-.14.93-.34 1.41-.58-2.27 1.6-4.1 3.83-5.25 6.41h-.02c.41-1.07 1.17-2.25 1.96-3.25.78-1.02 1.57-1.86 1.91-2.58M148.89 177.31c.05.01.11.03.17.05-.06 0-.12-.03-.18-.06M152.42 146.16l.32-.12c-.8.35-1.57.75-2.32 1.18.57-.4 1.26-.76 2-1.07M161.59 145.07c1.75.12 3.5.48 5.16 1.06 2.1.86 3.99 2.13 5.42 3.66-2.92-2.53-6.62-4.25-10.58-4.72M154 150.06c.57-.13 1.16-.21 1.74-.26-.56.13-1.12.3-1.66.49.08-.11-.05-.16-.08-.23M146.42 150.19l.39-.36c-.3.35-.58.7-.85 1.07.08-.15.31-.47.46-.71M160.11 149.46c-.42-.03-.84-.05-1.26-.04.24-.06.49-.13.74-.21.14.1.32.18.52.25M166.38 150.91c.52.25 1 .53 1.44.84-.58-.33-1.19-.62-1.8-.88.17 0 .31-.01.36.04" class="cls-5"/><path d="M246.27 175.42c-.61-.77-1.44-1.34-2.49-1.71-1.05-.37-2.04-.56-2.97-.56-.55 0-1.11.06-1.69.19-.58.13-1.13.33-1.64.6-.52.27-.93.64-1.26 1.09-.32.45-.48 1-.48 1.64 0 1.03.39 1.82 1.16 2.37.77.55 1.75 1.01 2.92 1.4 1.18.39 2.44.77 3.79 1.16 1.35.39 2.62.93 3.79 1.64 1.17.71 2.15 1.66 2.92 2.85s1.16 2.79 1.16 4.78-.35 3.56-1.06 4.98c-.71 1.42-1.67 2.59-2.88 3.53-1.21.93-2.61 1.63-4.2 2.08-1.59.45-3.28.68-5.05.68-2.22 0-4.28-.34-6.18-1.01-1.9-.68-3.67-1.77-5.31-3.29l5.36-5.89a7.807 7.807 0 0 0 2.92 2.39c1.18.56 2.39.85 3.65.85.61 0 1.23-.07 1.86-.22.63-.14 1.19-.36 1.69-.65.5-.29.9-.66 1.21-1.11.31-.45.46-.98.46-1.59 0-1.03-.39-1.84-1.18-2.44-.79-.6-1.78-1.1-2.97-1.52-1.19-.42-2.48-.84-3.87-1.26-1.39-.42-2.67-.98-3.87-1.69a9.34 9.34 0 0 1-2.97-2.8c-.79-1.16-1.18-2.69-1.18-4.59s.36-3.45 1.09-4.83c.72-1.38 1.69-2.54 2.9-3.48 1.21-.93 2.6-1.63 4.18-2.1s3.21-.7 4.88-.7c1.93 0 3.8.27 5.6.82 1.8.55 3.43 1.47 4.88 2.75l-5.17 5.65ZM272.07 185.38c-.35-.51-.85-.94-1.5-1.28-.64-.34-1.34-.51-2.08-.51-1.84 0-3.26.55-4.28 1.64-1.01 1.1-1.52 2.53-1.52 4.3s.51 3.21 1.52 4.3 2.44 1.64 4.28 1.64c.8 0 1.5-.18 2.08-.53s1.08-.77 1.5-1.26l4.78 5.03a9.294 9.294 0 0 1-3.99 2.44c-1.53.47-2.99.7-4.37.7-1.8 0-3.5-.29-5.1-.87s-2.98-1.41-4.16-2.49c-1.18-1.08-2.1-2.38-2.78-3.89-.68-1.51-1.01-3.2-1.01-5.07s.34-3.56 1.01-5.07c.68-1.51 1.6-2.81 2.78-3.89 1.18-1.08 2.56-1.91 4.16-2.49 1.59-.58 3.29-.87 5.1-.87 1.38 0 2.84.23 4.37.7 1.53.47 2.86 1.28 3.99 2.44l-4.78 5.02ZM279.46 177.79h7.25v3.77h.1c.77-1.45 1.69-2.54 2.75-3.26 1.06-.72 2.4-1.09 4.01-1.09.42 0 .84.02 1.26.05.42.03.8.1 1.16.19v6.62c-.52-.16-1.02-.28-1.52-.36a9.9 9.9 0 0 0-1.57-.12c-1.39 0-2.48.19-3.29.58-.81.39-1.42.93-1.86 1.62-.43.69-.72 1.52-.84 2.49-.13.97-.19 2.03-.19 3.19v9.81h-7.25V177.8ZM321.74 201.27h-6.96v-3.19h-.1c-.26.45-.59.9-.99 1.35-.4.45-.89.85-1.47 1.21-.58.35-1.24.64-1.98.87-.74.23-1.55.34-2.42.34-1.84 0-3.33-.28-4.47-.85s-2.03-1.34-2.66-2.34c-.63-1-1.05-2.17-1.26-3.53-.21-1.35-.31-2.82-.31-4.4v-12.95h7.25v11.5c0 .68.02 1.38.07 2.1.05.72.19 1.39.43 2 .24.61.61 1.11 1.11 1.5.5.39 1.22.58 2.15.58s1.69-.17 2.27-.51c.58-.34 1.02-.79 1.33-1.35.31-.56.51-1.2.6-1.91.1-.71.15-1.45.15-2.22v-11.69h7.25v23.48ZM326.86 177.79h6.96v3.19h.1c.22-.45.55-.9.97-1.35s.92-.85 1.5-1.21 1.24-.64 1.98-.87c.74-.22 1.55-.34 2.42-.34 1.64 0 3.1.34 4.37 1.01s2.23 1.74 2.88 3.19c.84-1.51 1.85-2.59 3.04-3.24 1.19-.64 2.66-.97 4.4-.97 1.58 0 2.91.27 3.99.8s1.93 1.26 2.56 2.17 1.08 2 1.35 3.24.41 2.57.41 3.99v13.87h-7.25V187.6c0-1.09-.23-2.04-.7-2.83s-1.3-1.18-2.49-1.18c-.84 0-1.54.14-2.1.41-.56.27-1.01.65-1.35 1.14-.34.48-.58 1.05-.73 1.69-.14.64-.22 1.32-.22 2.03v12.42h-7.25v-12.42c0-.42-.02-.93-.05-1.55-.03-.61-.15-1.19-.34-1.74a3.34 3.34 0 0 0-.94-1.4c-.43-.39-1.07-.58-1.91-.58-.93 0-1.69.17-2.27.51-.58.34-1.02.79-1.33 1.35-.31.56-.51 1.2-.6 1.91-.1.71-.14 1.45-.14 2.22v11.69h-7.25v-23.48ZM373.05 201.56c-.87 0-1.62-.31-2.25-.94-.63-.63-.94-1.38-.94-2.25s.31-1.62.94-2.25c.63-.63 1.38-.94 2.25-.94s1.62.31 2.25.94.94 1.38.94 2.25-.31 1.62-.94 2.25-1.38.94-2.25.94ZM381.94 189.82c0-1.67.31-3.24.94-4.69s1.49-2.72 2.58-3.82 2.38-1.96 3.87-2.58c1.48-.63 3.08-.94 4.78-.94s3.3.31 4.78.94c1.48.63 2.77 1.49 3.87 2.58a12.21 12.21 0 0 1 2.58 3.82c.63 1.45.94 3.01.94 4.69s-.31 3.25-.94 4.71c-.63 1.47-1.49 2.74-2.58 3.82-1.1 1.08-2.38 1.93-3.87 2.56-1.48.63-3.08.94-4.78.94s-3.3-.31-4.78-.94-2.77-1.48-3.87-2.56-1.96-2.35-2.58-3.82c-.63-1.46-.94-3.04-.94-4.71Zm4.64 0c0 1.16.18 2.23.53 3.21.35.98.85 1.82 1.5 2.51a6.84 6.84 0 0 0 2.37 1.64c.93.4 1.98.6 3.14.6s2.21-.2 3.14-.6c.93-.4 1.72-.95 2.37-1.64.64-.69 1.14-1.53 1.5-2.51.35-.98.53-2.05.53-3.21s-.18-2.23-.53-3.21c-.35-.98-.85-1.82-1.5-2.51a6.935 6.935 0 0 0-2.37-1.64c-.93-.4-1.98-.6-3.14-.6s-2.21.2-3.14.6c-.93.4-1.72.95-2.37 1.64-.64.69-1.14 1.53-1.5 2.51-.35.98-.53 2.05-.53 3.21ZM411.75 178.37h4.35v3.53h.1c.29-.61.68-1.17 1.16-1.67.48-.5 1.02-.93 1.62-1.28.6-.35 1.25-.64 1.96-.85.71-.21 1.42-.31 2.13-.31s1.35.1 1.93.29l-.19 4.69c-.35-.1-.71-.18-1.06-.24-.35-.06-.71-.1-1.06-.1-2.13 0-3.75.6-4.88 1.79s-1.69 3.04-1.69 5.56v11.5h-4.35v-22.9ZM451.71 201.08c0 1.74-.3 3.33-.89 4.76a10.9 10.9 0 0 1-2.54 3.72c-1.1 1.05-2.42 1.86-3.96 2.44-1.55.58-3.25.87-5.12.87-2.19 0-4.2-.31-6.02-.92-1.82-.61-3.55-1.67-5.19-3.19l2.95-3.67c1.13 1.22 2.35 2.15 3.67 2.78 1.32.63 2.82.94 4.49.94s2.95-.23 4.01-.7c1.06-.47 1.91-1.07 2.54-1.81.63-.74 1.07-1.59 1.33-2.54s.39-1.91.39-2.88v-3.38h-.15c-.84 1.38-1.97 2.41-3.41 3.07-1.43.66-2.94.99-4.52.99-1.67 0-3.23-.3-4.66-.89-1.43-.6-2.67-1.42-3.7-2.46-1.03-1.05-1.84-2.29-2.42-3.72s-.87-2.99-.87-4.66.27-3.24.82-4.71c.55-1.46 1.33-2.75 2.34-3.84 1.01-1.09 2.24-1.95 3.67-2.56s3.04-.92 4.81-.92c1.55 0 3.05.34 4.52 1.01 1.47.68 2.62 1.63 3.46 2.85h.1v-3.29h4.35v22.71Zm-11.89-19.23c-1.16 0-2.21.2-3.14.6-.93.4-1.72.95-2.37 1.64-.64.69-1.14 1.53-1.5 2.51-.35.98-.53 2.05-.53 3.21 0 2.32.68 4.18 2.03 5.58 1.35 1.4 3.19 2.1 5.51 2.1s4.16-.7 5.51-2.1c1.35-1.4 2.03-3.26 2.03-5.58 0-1.16-.18-2.23-.53-3.21-.35-.98-.85-1.82-1.5-2.51a6.935 6.935 0 0 0-2.37-1.64c-.93-.4-1.98-.6-3.14-.6ZM459.29 173.52H461l1.15 3.16 1.15-3.16h1.71v4.85h-1.27v-3.15h-.02l-1.15 3.15h-.82l-1.15-3.15h-.02v3.15h-1.27v-4.85Zm-3.71 1.13h-1.4v-1.13h4.07v1.13h-1.4v3.72h-1.27v-3.72Z" class="cls-4"/></g><script xmlns=""/></svg>