<svg id="b" xmlns="http://www.w3.org/2000/svg" viewBox="0 0 598.8 598"><defs><style>.d{fill:#f27caa}.e{fill:#fff}.f{fill:#e51d6c}.g{fill:#405a70}.h{fill:#1899b5}</style></defs><g id="c"><path class="g" d="M299.4 0H0v299c0 165.1 134 299 299.4 299s299.4-133.9 299.4-299S464.8 0 299.4 0"/><path class="d" d="M89.1 90.9H12.3c-.8 0-1.4-.6-1.4-1.4V14c0-.8.6-1.4 1.4-1.4h76.8c.8 0 1.4.6 1.4 1.4v75.5c0 .8-.6 1.4-1.4 1.4"/><path class="e" d="M80.5 82.9H22.9c-.4 0-.8-.4-.8-.8V22.4c0-.4.4-.8.8-.8h57.6c.4 0 .8.4.8.8v59.7c0 .4-.4.8-.8.8"/><path class="d" d="M30.8 46.5h19.1v7.8H30.8zM30.4 57.7H54v5.9H30.4zM30.4 67.4h21.3v5.7H30.4zM71 73.3l-5.8-5.6-5.4 5.6V33.4H71v39.9z"/><path class="f" d="M580.8 300.1c0 154.2-125.2 279.2-279.6 279.2S21.6 454.3 21.6 300.1 146.8 21 301.2 21s279.6 125 279.6 279.2"/><path class="e" d="M580.8 300.1h-2c0 76.5-31.1 145.8-81.3 196-50.2 50.2-119.6 81.2-196.3 81.2-76.7 0-146-31-196.3-81.2-50.2-50.2-81.3-119.4-81.3-196 0-76.5 31.1-145.8 81.3-196C155.2 54 224.5 22.9 301.2 22.9c76.7 0 146 31 196.3 81.2 50.2 50.2 81.3 119.4 81.3 196h4c0-155.3-126-281.1-281.5-281.1S19.8 144.9 19.8 300.1c0 155.3 126 281.1 281.5 281.1s281.5-125.9 281.5-281.1h-2Z"/><path class="e" d="M534.5 298.8c0 129.6-105.2 234.6-235 234.6s-235-105.1-235-234.6 105.2-234.7 235-234.7 235 105.1 235 234.6M33.2 285.4l.7-7.9c.1-1.1.3-2.1.6-3.1s.7-1.8 1.3-2.5c.6-.7 1.3-1.2 2.1-1.5.9-.4 1.9-.5 3.2-.4 1.2.1 2.3.4 3.1.9.8.5 1.4 1.1 1.8 1.8.4.7.7 1.6.8 2.6.1 1 .1 2 0 3.1l-.3 3.4 8.2.8-.4 4.7-21.1-2Zm9.4-3.8.3-3.1v-1.2c0-.4-.1-.8-.3-1.1-.2-.3-.4-.6-.7-.8-.3-.2-.7-.4-1.2-.4s-1 0-1.3.3c-.4.2-.6.5-.9.9-.2.4-.4.8-.5 1.3 0 .5-.2.9-.2 1.4l-.2 2.4 5 .5ZM35.3 265l1.4-8.1c.2-1.1.5-2.1.8-3 .4-.9.9-1.7 1.5-2.3.6-.6 1.4-1.1 2.2-1.4.9-.3 1.9-.3 3.2-.1 1.5.3 2.7.8 3.6 1.8s1.4 2.2 1.4 3.7l9.7-3.8-.9 5.5-9.1 3-.4 2.3 8.4 1.4-.8 4.6-20.9-3.5Zm9.4-3.1.5-2.7c0-.4.1-.9.2-1.3s0-.9 0-1.3-.3-.7-.5-1c-.3-.3-.7-.5-1.3-.6-.5 0-1 0-1.3.1-.4.2-.6.4-.9.7-.2.3-.4.7-.5 1.1-.1.4-.2.8-.3 1.3l-.5 3 4.8.8ZM48.9 247.7c-1.6-.4-3.1-1.1-4.3-2-1.2-.9-2.1-2-2.8-3.2-.7-1.2-1.1-2.6-1.3-4.1-.2-1.5 0-3 .4-4.6.4-1.6 1.1-3 1.9-4.2.9-1.2 1.9-2.2 3.1-3 1.2-.7 2.5-1.2 4-1.4 1.5-.2 3 0 4.7.3 1.6.4 3.1 1.1 4.3 2s2.1 2 2.8 3.2c.7 1.2 1.1 2.6 1.2 4.1.2 1.5 0 3-.4 4.6-.4 1.6-1.1 3-1.9 4.2-.9 1.2-1.9 2.2-3.1 3-1.2.7-2.5 1.2-4 1.4-1.5.2-3 0-4.7-.3Zm1.2-4.7c1 .3 1.9.3 2.8.2.9 0 1.7-.3 2.4-.8.7-.4 1.4-1 1.9-1.7s.9-1.5 1.2-2.5c.3-1 .3-1.9.2-2.8-.1-.9-.4-1.7-.9-2.4s-1-1.3-1.8-1.8c-.7-.5-1.6-.9-2.5-1.1-.9-.2-1.9-.3-2.8-.2-.9 0-1.7.3-2.4.7-.7.4-1.4 1-1.9 1.7s-.9 1.5-1.2 2.5c-.2 1-.3 1.9-.2 2.8.1.9.4 1.7.9 2.4.4.7 1 1.3 1.8 1.8.7.5 1.6.9 2.5 1.1ZM46 218l4.7-13.4 4.1 1.4-3.2 9 4.1 1.4 2.9-8.3 4.1 1.4-2.9 8.3 7.8 2.8L66 225l-20-7.1ZM52.6 199.8l5.8-13.2 4 1.7-3.9 8.9 3.6 1.6 3.7-8.4 4 1.7-3.7 8.4 4 1.7 4.1-9.4 4 1.7-6 13.7-19.5-8.5ZM70.4 174.4c-.6.1-1.2.4-1.7.9s-.9 1-1.2 1.5c-.2.3-.3.6-.4 1 0 .4-.1.7-.1 1.1 0 .4 0 .7.2 1 .2.3.4.6.8.7.6.3 1.1.3 1.6 0s1.1-.7 1.6-1.2c.6-.5 1.1-1.1 1.7-1.7.6-.6 1.3-1.2 2-1.6.7-.4 1.5-.7 2.4-.8.9 0 1.9.2 3 .7 1 .5 1.9 1.2 2.4 2 .6.8.9 1.7 1.1 2.6.2.9.1 1.9 0 2.9-.2 1-.6 2-1.1 3-.6 1.2-1.4 2.3-2.3 3.1s-2 1.5-3.3 2l-1.7-4.7c.8-.1 1.5-.4 2.2-.9s1.2-1.1 1.5-1.8c.2-.3.3-.7.4-1.1.1-.4.1-.8.1-1.1 0-.4-.1-.7-.3-1-.2-.3-.4-.5-.7-.7-.6-.3-1.1-.3-1.7 0-.6.3-1.1.7-1.7 1.2-.6.5-1.2 1.1-1.8 1.8-.6.6-1.3 1.2-2 1.6-.7.5-1.5.7-2.4.8-.9 0-1.8-.1-2.9-.7-1-.5-1.8-1.2-2.3-2-.6-.8-.9-1.7-1.1-2.6-.2-.9-.1-1.9 0-2.9.2-1 .5-2 1-2.9.6-1.1 1.2-2 2.1-2.8.8-.8 1.8-1.5 2.9-1.9l1.6 4.5ZM79.5 158.7c-.6 0-1.2.3-1.7.8-.5.4-.9.9-1.2 1.4-.2.3-.3.6-.4 1-.1.3-.2.7-.2 1.1 0 .4 0 .7.2 1 .1.3.4.6.7.8.5.3 1.1.4 1.6.1.5-.2 1.1-.6 1.7-1.1.6-.5 1.2-1 1.8-1.6.6-.6 1.3-1.1 2.1-1.5.8-.4 1.6-.6 2.5-.6.9 0 1.9.3 2.9.9 1 .6 1.8 1.3 2.3 2.2.5.8.8 1.7.9 2.7s0 1.9-.2 2.9c-.3 1-.7 2-1.3 2.9-.7 1.2-1.6 2.2-2.5 3-1 .8-2.1 1.4-3.5 1.8l-1.4-4.7c.8 0 1.5-.3 2.2-.8.7-.4 1.2-1 1.6-1.7.2-.3.4-.7.5-1.1.1-.4.2-.7.2-1.1 0-.4 0-.7-.2-1-.1-.3-.4-.6-.7-.8-.5-.3-1.1-.4-1.7-.2-.6.2-1.2.6-1.8 1.1-.6.5-1.2 1-1.9 1.6-.7.6-1.4 1.1-2.1 1.5s-1.6.6-2.4.7c-.9 0-1.8-.2-2.8-.8-1-.6-1.7-1.3-2.2-2.1-.5-.8-.8-1.7-.9-2.7-.1-.9 0-1.9.2-2.9.3-1 .7-1.9 1.2-2.8.6-1 1.4-1.9 2.2-2.7.9-.8 1.9-1.4 3-1.7l1.3 4.6Z"/><path class="e" d="m79.4 149.5 2.7-3.9 17.5 12.1-2.7 3.9-17.5-12.1ZM92.9 148.5c-1.3-1-2.4-2.2-3.1-3.5-.7-1.3-1.2-2.6-1.3-4-.1-1.4 0-2.8.5-4.2.5-1.4 1.2-2.8 2.2-4.1 1-1.3 2.2-2.4 3.4-3.1 1.3-.8 2.6-1.3 4-1.5 1.4-.2 2.8-.1 4.2.3 1.4.4 2.8 1.1 4.2 2.2 1.3 1 2.4 2.2 3.1 3.5.7 1.3 1.2 2.6 1.3 4.1.1 1.4 0 2.8-.5 4.2-.5 1.4-1.2 2.8-2.2 4.1-1 1.3-2.2 2.4-3.4 3.1-1.3.8-2.6 1.3-4 1.5-1.4.2-2.8.1-4.2-.3-1.4-.4-2.8-1.1-4.2-2.2Zm3-3.8c.8.6 1.6 1.1 2.4 1.3.8.3 1.7.4 2.5.3.8 0 1.6-.3 2.4-.8.8-.4 1.5-1 2.1-1.8.6-.8 1-1.6 1.3-2.5.2-.8.3-1.7.2-2.5-.1-.8-.4-1.6-.9-2.4-.5-.8-1.1-1.4-1.9-2.1-.8-.6-1.6-1-2.4-1.3-.9-.3-1.7-.4-2.5-.3-.8 0-1.6.3-2.4.8-.8.4-1.5 1-2.1 1.8-.6.8-1 1.6-1.3 2.5-.2.8-.3 1.7-.2 2.5.1.8.4 1.6.9 2.4.5.8 1.1 1.4 1.9 2ZM102.3 119.8l4.4-4.6 16.9 3.8-10.6-10.3 3.3-3.4 15.2 14.8-4.3 4.4-17.3-3.9 10.8 10.6-3.3 3.4-15.2-14.8ZM126.3 96.4l2.9-2.5 20.8 10.2-4 3.4-4.3-2.2-6.3 5.3 1.6 4.6-3.9 3.3-6.8-22.1Zm5.4 3.5 2.3 6.7 4-3.4-6.3-3.3ZM139.4 85.8l3.8-2.8 10 13.6 7-5.1 2.6 3.5-10.8 7.9-12.6-17.1ZM173.4 69.6c-.6-.2-1.2-.3-1.9-.2-.7.1-1.3.3-1.8.6-.3.2-.6.4-.8.6-.3.2-.5.5-.7.8-.2.3-.3.6-.3 1 0 .3 0 .7.2 1 .3.6.8.9 1.4.9.6 0 1.3 0 2-.2.8-.2 1.6-.3 2.4-.6.8-.2 1.7-.3 2.6-.3.9 0 1.7.2 2.5.6.8.4 1.5 1.1 2.1 2.2.6 1 .9 2 1 3 0 1 0 1.9-.5 2.8-.4.9-.9 1.7-1.6 2.4-.7.7-1.6 1.4-2.5 1.9-1.2.7-2.4 1.1-3.6 1.4-1.2.2-2.5.2-3.9-.1l1.1-4.8c.7.3 1.5.4 2.3.4.8 0 1.5-.3 2.2-.7.3-.2.6-.4.9-.7.3-.3.5-.6.7-.9.2-.3.3-.6.3-1 0-.3 0-.7-.2-1-.3-.6-.8-.9-1.4-.9-.6 0-1.3 0-2.1.1s-1.6.3-2.5.5c-.9.2-1.7.3-2.6.3-.9 0-1.7-.2-2.5-.6-.8-.4-1.5-1.1-2.1-2.1-.6-1-.9-2-.9-2.9s.1-1.9.5-2.8c.4-.9.9-1.7 1.6-2.4.7-.7 1.5-1.4 2.4-1.9 1-.6 2.1-1 3.3-1.3 1.1-.3 2.3-.3 3.5 0l-1 4.6ZM192.9 60c-.7-.3-1.4-.4-2.1-.4-.7 0-1.5.2-2.3.6-.8.4-1.5.9-2 1.5s-.9 1.3-1.1 2.1c-.2.8-.3 1.6-.2 2.5 0 .9.3 1.8.8 2.7.4.9 1 1.7 1.6 2.3.6.6 1.3 1.1 2.1 1.4.8.3 1.5.5 2.3.5.8 0 1.6-.2 2.3-.6.9-.4 1.5-1 2-1.6.5-.7.8-1.5.9-2.3l4.8.9c-.3 1.5-.9 2.9-1.9 4s-2.1 2-3.4 2.7c-1.5.7-3 1.2-4.5 1.3-1.5.1-2.9 0-4.2-.4-1.3-.4-2.6-1.1-3.7-2.1s-2-2.3-2.8-3.8c-.7-1.5-1.2-3-1.2-4.5s.1-2.9.6-4.2c.5-1.3 1.3-2.5 2.3-3.6 1-1.1 2.3-2 3.8-2.7.5-.3 1.1-.5 1.8-.7.6-.2 1.3-.3 2-.4s1.4 0 2.1 0c.7.1 1.4.3 2 .6l-2 4.2ZM198.3 51.5l7.7-2.9c1-.4 2-.6 3-.8 1-.1 1.9-.1 2.8 0 .9.2 1.6.6 2.3 1.2.7.6 1.3 1.5 1.7 2.7.5 1.4.6 2.7.3 4-.4 1.3-1.2 2.3-2.5 3.1l8.2 6.5-5.2 2-7.2-6.4-2.2.8 3 7.9-4.4 1.7-7.5-19.9Zm7.5 6.6 2.6-1c.4-.1.8-.3 1.2-.5.4-.2.8-.4 1.1-.7.3-.3.5-.6.6-1 .1-.4 0-.9-.1-1.4-.2-.5-.4-.9-.8-1.1-.3-.2-.7-.4-1-.4h-1.2c-.4.1-.8.2-1.2.4l-2.9 1.1 1.7 4.5ZM239.1 51.7c.3 1.2.5 2.4.4 3.5 0 1.1-.4 2.2-.9 3.1-.5 1-1.2 1.8-2.2 2.5-1 .7-2.1 1.3-3.5 1.7-1.4.4-2.7.5-3.9.4-1.2-.1-2.3-.5-3.2-1-.9-.5-1.7-1.3-2.4-2.2-.7-.9-1.2-2-1.5-3.2l-3.5-12.6 4.5-1.3 3.5 12.4c.2.6.4 1.2.8 1.7s.8.9 1.2 1.2c.5.3 1 .5 1.6.6.6 0 1.2 0 1.8-.1.6-.2 1.1-.4 1.6-.8.4-.4.8-.8 1-1.3.3-.5.4-1 .5-1.6 0-.6 0-1.2-.2-1.8l-3.5-12.4 4.5-1.3 3.5 12.6ZM241.8 37.5l7-1.2 7.2 12.8 2.5-14.5 6.9-1.2 3.7 20.9-4.6.8-2.8-16-2.7 17-3.5.6-8.1-15.1 2.8 16.1-4.6.8-3.7-20.9ZM279.7 31.6h5.1l3.7 13.5 4.2-13.7h4.3l4.7 13.8 3.3-14h4.7l-5.8 21.3h-4.2l-5-14.5-4.4 14.8h-4l-6.7-21ZM313.4 31.7l4.7.3-1.2 21.2-4.7-.3 1.2-21.2ZM327.1 36.9l-6-.7.5-4.1 16.7 1.8-.5 4.1-6-.7-1.9 17-4.7-.5 1.9-17ZM342.5 34.6l4.6.9-1.6 7.8 8.9 1.8 1.6-7.8 4.6.9-4.2 20.8-4.6-.9 1.8-9-8.9-1.8-1.8 9-4.6-.9 4.2-20.8ZM388.7 60.5c-.4 1.2-1 2.2-1.7 3.1-.7.9-1.5 1.6-2.5 2.1s-2 .8-3.2.8-2.5-.1-3.9-.6-2.6-1.1-3.5-1.9c-.9-.8-1.6-1.7-2.1-2.6s-.7-2-.7-3.2c0-1.1.2-2.3.6-3.5l4.2-12.4 4.4 1.5-4.1 12.2c-.2.6-.3 1.2-.3 1.8 0 .6.1 1.2.4 1.7s.6 1 1 1.3c.4.4.9.7 1.5.9.6.2 1.2.3 1.7.2.6 0 1.1-.2 1.6-.5s.9-.6 1.3-1.1c.4-.5.7-1 .9-1.6l4.1-12.2 4.4 1.5-4.2 12.4ZM406.2 59.3c-.2-.6-.5-1.1-1-1.6s-1-.8-1.6-1.1c-.3-.1-.6-.2-1-.3h-1.1c-.4 0-.7.1-1 .3-.3.2-.5.4-.7.8-.3.6-.2 1.1 0 1.6.3.5.7 1 1.3 1.5.6.5 1.2 1 1.9 1.6s1.3 1.2 1.7 1.9c.5.7.8 1.5 1 2.3.1.9 0 1.9-.5 3s-1.1 1.9-1.8 2.6c-.8.6-1.6 1.1-2.5 1.3-.9.2-1.9.3-2.9.1-1-.1-2-.4-3-.9-1.3-.6-2.4-1.3-3.3-2.1-.9-.9-1.6-1.9-2.2-3.2l4.5-2c.2.8.5 1.5 1.1 2.1s1.2 1.1 1.9 1.4c.3.2.7.3 1.1.3h1.1c.4 0 .7-.2 1-.3.3-.2.5-.4.7-.8.3-.6.2-1.1 0-1.7-.3-.5-.7-1.1-1.3-1.6-.6-.5-1.2-1.1-1.9-1.7-.7-.6-1.3-1.2-1.8-1.9s-.8-1.5-1-2.3c-.2-.9 0-1.8.5-2.9.5-1 1.1-1.9 1.8-2.5.8-.6 1.6-1 2.5-1.3s1.9-.3 2.9-.2c1 .1 2 .4 3 .8 1.1.5 2.1 1.1 3 1.9s1.6 1.7 2.1 2.8l-4.3 1.9ZM415.9 58.1l12.8 6.7-2 3.8-8.6-4.6-1.9 3.5 8.1 4.3-2 3.8-8.1-4.3-2 3.8 9.1 4.8-2 3.8-13.2-7 9.9-18.8ZM433.8 67.7l7 4.4c.9.6 1.7 1.2 2.4 1.9s1.2 1.4 1.6 2.2c.4.8.5 1.7.4 2.6 0 .9-.4 1.9-1.1 3-.8 1.3-1.8 2.1-3 2.6s-2.5.4-4-.1l-.2 10.5-4.8-3 .7-9.6-2-1.2-4.5 7.2-4-2.5 11.3-18Zm-.7 9.9 2.3 1.5c.4.2.7.4 1.2.7.4.2.8.4 1.2.4h1.2c.4-.1.7-.5 1-.9.3-.5.4-.9.4-1.3s-.1-.7-.3-1.1c-.2-.3-.5-.6-.8-.9-.3-.3-.7-.5-1-.8l-2.6-1.6-2.6 4.1ZM459.6 85l11.2 9.1-2.7 3.4-7.6-6.1-2.5 3.1 7.2 5.8-2.7 3.4-7.2-5.8-2.7 3.4 8 6.5-2.7 3.4-11.6-9.4 13.4-16.5ZM472.1 108.9l1.8-12.2 4.3 4-1.8 8.5 8.3-2.5 4.1 3.9-11.9 2.6-2 13.4-4.3-4 2.1-9.8-9.5 2.8-4.1-3.8 13-3ZM492.1 114.1l5.3 5.9c.7.8 1.4 1.7 1.9 2.5.5.9.8 1.7 1 2.6.1.9 0 1.7-.3 2.6-.3.9-1 1.7-1.9 2.6-.9.8-1.8 1.4-2.7 1.6-.9.3-1.8.3-2.6.1-.8-.2-1.7-.6-2.5-1.1-.8-.6-1.6-1.3-2.3-2.1l-2.3-2.5-6.1 5.6-3.1-3.5 15.8-14.2Zm-3.5 9.5 2.1 2.3c.3.3.6.6.9.8.3.2.7.4 1 .5.3.1.7.1 1.1 0 .4 0 .7-.3 1.1-.6.4-.4.6-.7.7-1.2v-1.2c-.1-.4-.3-.8-.6-1.2-.3-.4-.6-.7-.9-1.1l-1.6-1.8-3.7 3.4ZM505.7 129.6l8.9 11.4-3.4 2.7-6-7.7-3.1 2.4 5.7 7.3-3.4 2.7-5.7-7.3-3.4 2.7 6.3 8.1-3.4 2.7-9.2-11.8 16.7-13.1ZM518.1 145.9l4.5 6.9c.6.9 1.1 1.8 1.4 2.7.4.9.5 1.8.5 2.7s-.2 1.7-.7 2.5c-.5.8-1.2 1.6-2.2 2.2-1.3.8-2.5 1.2-3.8 1.1-1.3 0-2.5-.7-3.5-1.8l-4.5 9.4-3.1-4.7 4.7-8.4-1.3-1.9-7.1 4.7-2.6-3.9 17.8-11.6Zm-4.8 8.7 1.5 2.3c.2.4.5.7.8 1.1.3.4.6.7.9.9.3.2.7.4 1.1.4.4 0 .8-.1 1.3-.4.5-.3.8-.6.9-1 .1-.4.2-.7.2-1.1 0-.4-.2-.8-.4-1.2-.2-.4-.4-.8-.6-1.1l-1.7-2.6-4 2.6ZM529.2 163.4l2.3 4.1-18.4 10.6-2.3-4.1 18.4-10.6ZM534.2 172.2l6.6 12.9-3.8 2-4.4-8.7-3.5 1.8 4.2 8.2-3.8 2-4.2-8.2-3.8 2 4.7 9.2-3.8 2-6.8-13.3 18.9-9.7ZM543.4 190.5l2.4 5.9-10.2 13.9 13.7-5.5 1.8 4.3-19.7 8-2.3-5.7 10.5-14.3-14 5.7-1.8-4.3 19.7-8ZM551.7 230.1c.4-.6.7-1.3.8-2 0-.7 0-1.5-.2-2.4-.3-.8-.6-1.6-1.2-2.2s-1.2-1.1-1.9-1.5c-.7-.4-1.6-.6-2.5-.6-.9 0-1.8 0-2.7.3-1 .3-1.8.7-2.5 1.2s-1.3 1.1-1.7 1.8c-.4.7-.7 1.4-.8 2.2-.1.8 0 1.6.2 2.4.3.9.7 1.7 1.3 2.3.6.6 1.3 1 2.1 1.3l-1.7 4.6c-1.5-.5-2.7-1.3-3.7-2.5s-1.7-2.4-2.1-3.8c-.5-1.6-.7-3.1-.6-4.6 0-1.5.5-2.9 1.1-4.1.6-1.3 1.5-2.4 2.7-3.3 1.2-.9 2.6-1.7 4.2-2.1 1.6-.5 3.2-.7 4.7-.5 1.5.2 2.8.6 4.1 1.3 1.2.7 2.3 1.6 3.2 2.8.9 1.2 1.6 2.6 2.1 4.2.2.6.3 1.2.4 1.8v2c0 .7-.2 1.3-.4 2s-.5 1.3-1 1.9l-3.8-2.6ZM559.2 236.7l3.1 14.1-4.2.9-2.1-9.5-3.9.9 2 9-4.2.9-2-9-4.2.9 2.2 10-4.2.9-3.2-14.6 20.7-4.6ZM564.5 265.5l.6 4.6-21.1 2.8-.6-4.6 21.1-2.8ZM568.8 275.2v-1.7h.7l.4 4.5h-.8v-1.7l-4.5.4v-1.1l4.3-.4Zm1.1 3.9v1.7l-3.7 1.9 4.1 1.3v1.7l-5 .4V285l4.2-.3-4.5-1.4v-.9l4.1-2-4.3.3v-1.1l5.1-.4Z"/><path class="f" d="M122.3 284.4h39.5c5.5 0 10.7.5 15.6 1.5s9.2 2.7 12.8 5.2c3.7 2.5 6.5 5.8 8.7 9.9 2.1 4.2 3.2 9.4 3.2 15.7s-1 11.4-3 15.6c-2 4.2-4.8 7.6-8.2 10.1-3.5 2.5-7.7 4.3-12.4 5.3-4.8 1.1-10 1.6-15.6 1.6h-17.1v41.4h-23.4V284.5Zm23.4 45h15.6c2.1 0 4.1-.2 6.1-.6 1.9-.4 3.7-1.1 5.2-2 1.5-.9 2.8-2.2 3.8-3.9.9-1.6 1.4-3.7 1.4-6.2s-.6-4.9-1.9-6.5-2.8-2.9-4.8-3.8c-2-.9-4.1-1.5-6.5-1.7-2.4-.2-4.7-.4-6.9-.4h-12v25.2ZM269.3 310.4c-1.9-2.4-4.5-4.2-7.7-5.3-3.2-1.1-6.3-1.7-9.2-1.7s-3.4.2-5.2.6c-1.8.4-3.5 1-5.1 1.9-1.6.9-2.9 2-3.9 3.4s-1.5 3.1-1.5 5.1c0 3.2 1.2 5.7 3.6 7.4 2.4 1.7 5.4 3.1 9.1 4.4 3.6 1.2 7.6 2.4 11.8 3.6 4.2 1.2 8.1 2.9 11.8 5.1 3.7 2.2 6.7 5.2 9.1 8.9 2.4 3.7 3.6 8.7 3.6 14.9s-1.1 11.1-3.3 15.5c-2.2 4.4-5.2 8.1-8.9 10.9-3.8 2.9-8.1 5.1-13.1 6.5-4.9 1.4-10.2 2.1-15.7 2.1s-13.3-1.1-19.2-3.2c-5.9-2.1-11.4-5.5-16.5-10.2l16.7-18.3c2.4 3.2 5.4 5.7 9.1 7.4 3.7 1.8 7.4 2.6 11.3 2.6s3.8-.2 5.8-.7c2-.4 3.7-1.1 5.2-2s2.8-2 3.8-3.4c.9-1.4 1.4-3 1.4-5 0-3.2-1.2-5.7-3.7-7.6-2.5-1.8-5.5-3.4-9.2-4.7-3.7-1.3-7.7-2.6-12-3.9-4.3-1.3-8.3-3-12-5.2-3.7-2.2-6.8-5.1-9.2-8.7-2.5-3.6-3.7-8.3-3.7-14.2s1.1-10.7 3.4-15c2.2-4.3 5.2-7.9 9-10.8 3.8-2.9 8.1-5.1 13-6.5 4.9-1.4 9.9-2.2 15.1-2.2s11.8.9 17.4 2.5c5.6 1.7 10.7 4.6 15.2 8.6l-16.1 17.5ZM392.5 349.7c0 6.3-1 12.1-2.8 17.4-1.9 5.3-4.7 9.9-8.5 13.8s-8.4 7-14 9.1c-5.6 2.2-12.1 3.3-19.3 3.3s-13.9-1.1-19.5-3.3c-5.6-2.2-10.3-5.2-14-9.1s-6.6-8.5-8.5-13.8c-1.9-5.3-2.8-11.1-2.8-17.4v-65.2h23.4v64.4c0 3.3.5 6.4 1.6 9.1 1.1 2.8 2.5 5.2 4.4 7.3 1.9 2.1 4.2 3.7 6.8 4.8 2.6 1.2 5.5 1.7 8.6 1.7s5.9-.6 8.6-1.7c2.6-1.1 4.8-2.7 6.8-4.8 1.9-2 3.4-4.5 4.4-7.3 1.1-2.8 1.6-5.8 1.6-9.1v-64.4h23.4v65.2ZM458.2 284.4h23.4v106.2h-23.4V284.4Z"/><path class="d" d="M31 33.2h17.1V39H31z"/><g><path class="g" d="M151.9 177.6c.7-3 1.9-5.9 3.5-8.5 1.6-2.6 3.6-4.9 5.8-6.7-1.7 1.5-3.3 3.2-4.6 5 1-1.4 2-2.6 3.2-3.6 1.2-1.1 2.4-2 3.9-2.9-.4.4-1 .9-1.6 1.4-.6.5-1.1 1-1.1 1.3-3 2.7-5.5 6-7.3 9.7-1.8 3.7-2.8 7.7-3 11.8-.4-1.6-.2-3 .1-4.1.3-1.2.8-2.2 1.1-3.2M172 157.3c-.8.2-1.5.5-2.3.8.8-.3 1.5-.6 2.3-.8M181.6 210.7c.8 0 1.7-.2 2.5-.3-.8.2-1.6.3-2.5.3M153.2 188.1l.4 1.4c.5 3.5 1.7 6.9 3.6 10.1-1-1.7-2-3.5-2.7-5.5-.7-1.9-1.2-4-1.2-6"/><path class="g" d="M153.8 184.3c0-3.5 1-7.1 2.7-9.9-1.6 2.9-2.5 6.3-2.7 9.9M198.9 195.7v-.4c.6-.9 1.2-2 1.7-3 0 .3 0 .6-.1.9-.3.6-.6.9-.8 1.2-.2.3-.5.7-.7 1.4M180.6 210.7h-1 1M198.1 197c-.1 0-.2-.1-.4 0l1.2-1.5v.2c-.1.4-.6.9-.7 1.4M186.1 204.5c-.4.1-.7.5-.8.6H182c-.2 0-.6.1-.9.3-.2-.1-.5-.2-.7-.3 2.6 0 5.3-.4 8-1.4-.7.3-1.4.6-2.2.8"/><path class="g" d="M173.9 161.4c2-.6 4.3-.8 6.5-.8s4.4.4 6.5.6c-2.3-.9-5.2-1.4-7.6-1.5-2.4-.2-4.4 0-4.9-.5s1.2-1 3.7-1.1c1.2 0 2.6 0 3.9.2 1.3.2 2.5.4 3.5.6l-1-.4c.5.2 1 .4 1.5.4-.5-.2-1.3-.5-2-.8-.7-.2-1.4-.5-1.7-.7.3 0 .7-.1 1-.2-1.4-.6-3.5-1-5.7-1s-4.4.1-6 .2c3.8-.4 7.9-.4 12 .4s8.2 2.4 11.9 4.8c3.7 2.4 6.9 5.8 9.2 9.7 2.3 3.9 3.6 8.3 3.8 12.7.7 9.8-3.2 19.3-10 25.7-.7.6-1.9 1.5-3.3 2.2-1.5.8-3.1 1.5-4.6 1.9-4.9 2-10.4 2.7-15.9 2.2-5.7-.7-11.1-3.3-15.5-7.2-4.3-3.9-7.6-9-9.5-14.9-.4-1.2-.4-2.7-.2-3.1.1-.2.3-.2.6.3.3.4.6 1.3 1.1 2.6 1.8 4.4 4.4 8.5 7.8 11.9-.3 0-.9-.6-1.4-1.1-.5-.6-1.1-1.2-1.5-1.6 1 1.5 2 2.8 3.2 3.9 1.2 1.1 2.4 2.2 3.9 3.1-2-1.3-3.8-2.8-5.4-4.5 2 2.1 4.5 4.1 7.2 5.6 2.8 1.6 5.8 2.7 9 3.2 1.1.2 2.2.7 3.4 1 1.2.3 2.6.4 4.3 0-4.2 0-8.5-.9-12.3-2.5-3.9-1.7-7.4-4.1-10.4-7.1-2.7-2.6-4.6-5.5-6.1-8.8.5 1 1.1 2 1.5 2.9-2.4-4.7-3.6-9.8-3.6-14.9.3 3.6 1.2 7.2 2.7 10.6 1.5 3.4 3.5 6.6 6.1 9.2 2.6 2.7 5.7 4.8 9.1 6.3 3.4 1.5 7 2.2 10.6 2.2-2-.3-4.3-.6-6.4-1.1-2.2-.5-4.2-1.3-5.6-2.5 5.7 2.9 12.4 4 18.9 2.7l-1.4.4c2.1-.1 4.2-.7 6.1-1.5 2-.8 3.8-1.9 5.6-3.1l.9-.6-.9.6c-3.2 2.1-6.7 3.5-10.3 4.2 1.6-.5 3.3-1 5.3-1.8-1.1.2-2.7.7-4.3 1-2.1.5-4.2.8-6.3.8 3.3-.1 6.4-1 9-2.3-4.1 1.3-8.7 1.9-12.9 1.2 2.4.2 4.7.2 7.1-.2 3.9-.5 7.8-1.8 11.2-4.1l-.4.3c.3-.2.5-.4.8-.5 1.3-.9 2.6-1.9 3.7-3.1 1-1 1.8-2.2 2.4-3.5l.4-.6c-.2.4-.2.7.4 0 1.2-1.5 2-3.2 2.7-5.1.7-1.9 1.2-3.9 1.7-6 .3-1.1.3-2.6.2-4.3v-.9c0-.4 0-.7-.1-1.1 0-.9-.2-1.7-.5-2.5.2.8.3 1.7.5 2.5v1c0-.2-.1-.4-.2-.9.2 3 0 6-.8 8.9-.8 2.9-2.1 5.8-3.7 8.3.1-.4.3-.8.4-1.1-.2.6-.5 1.1-.8 1.6-1.1 1.6-2.4 3.2-3.9 4.5.4-.4.7-.9 1-1.3-2 2-4.3 3.7-6.8 5-2.5 1.3-5.2 2.2-8 2.7-5.3.6-10.7-.4-15.3-2.8 2.4 1.5 5.2 2.6 8.2 3-4-.4-8-1.8-11.4-4-3.4-2.2-6.3-5.3-8.2-8.8 1.1 1 2.5 2.4 3.5 2.7.1-.2-1.3-2.2-.3-1.2 1.9 1.8 3.5 3.2 5 4.2s2.9 1.5 4.1 1.3c.3 0-.7-1.1-1.3-2-.6-.9-1-1.8-.3-1.4 1.2.7 3.3 1.8 5.7 2.4.7.3 1.4.5 2.2.6h.5c2.7.5 5.2.3 6.7.2.5 0 1.1-.1 1.6-.2.3 0 .5 0 .8.1.3-.2.6-.4.9-.5 1.4-.4 2.7-.9 4-1.5.7-.3 1.5-.6 2.2-.9 0 0-.2-.1-.2-.3 1.5-1 2.8-2.1 3.9-3.5.6-.5 1.1-.9 1.6-1.2.2-1 1-2.4 1.7-4s1.3-3.4 1.5-4.9c.3-1.5.4-3.1.3-4.7 0-.3.1-.5.2-.8-.2-.4-.2-.8-.3-1 0-1.3-.1-2.4-.2-3.5-.1-.2-.5-.4-.6-.8-.2-.8-.6-1.5-.9-2.2-.4-.8-.8-1.7-1.3-2.5-1.6-2.8-3.8-5.2-6.4-7.1v-.4c-.5-.1-1.1-.6-1.5-.7h.2c-.7-.2-1.1-.5-1.5-.7-.4-.2-.7-.5-1.3-.8-.3 0-.6 0-.9-.1-.1 0-.3-.1-.4-.2-1.3-1-2.9-1.1-4.6-1.3-1.7-.3-3.4-.4-5.2-.3-1.4.1-2-.1-3-.1"/><path class="g" d="M200.7 191.9c.6-1.4 1.1-2.8 1.4-4.3-.2 1.6-.4 3.1-1.4 4.3M167.6 201.2c-.3-.5-.7-1.1-1.1-1.6 2.6 2.5 5.8 4.2 9.4 5.1-1.4-.2-3.1-.9-4.6-1.6-1.5-.7-2.7-1.5-3.7-1.8M198.8 195.6v-.2.2M158.6 198.8l-.2-.4c.6.9 1.3 1.8 2.1 2.6-.6-.6-1.3-1.4-1.8-2.3M154.9 187.4c-.3-2.2-.3-4.5 0-6.8.6-2.9 1.7-5.6 3.3-7.8-2.5 4.3-3.7 9.4-3.4 14.5M163.1 195.8c-.3-.7-.5-1.4-.8-2.1.3.7.6 1.3 1 2-.2 0-.2 0-.3.2M165.1 205.3l-.5-.4c.5.3 1 .6 1.6.8-.2 0-.7-.3-1-.4M160.9 188.2c0 .5.1 1.1.3 1.6-.1-.3-.3-.6-.4-.9 0-.2.2-.4.2-.7M161.1 179.9c.2-.7.4-1.4.7-2-.3.8-.5 1.7-.7 2.5v-.5"/><path class="h" d="M167.6 146c2.2.9 4.2 2.3 6 3.9 1.7 1.6 3.2 3.5 4.3 5.4-.9-1.5-2-3-3.2-4.2.9 1 1.6 1.9 2.3 3 .6 1 1.2 2.2 1.6 3.4-.3-.3-.5-.9-.8-1.4-.3-.5-.6-1-.8-1.1-1.6-2.7-3.8-5.1-6.3-7-2.5-1.9-5.5-3.3-8.5-4 1.3 0 2.3.3 3.1.7.8.4 1.5 1 2.3 1.3M180.1 164.4c0-.6-.2-1.2-.3-1.8.1.6.3 1.3.3 1.8M138.1 163.7c0 .6 0 1.3-.1 1.9 0-.6 0-1.3.1-1.9M159.4 145.4h-1.1c-2.7 0-5.5.3-8.2 1.3 1.5-.5 3-1 4.6-1.3 1.6-.3 3.2-.3 4.7 0"/><path class="h" d="M162.2 146.4c2.7.5 5.2 1.8 7.2 3.5-2-1.6-4.5-2.9-7.2-3.5M146.9 179.1h.4c.6.6 1.3 1.2 2 1.7-.2 0-.4-.1-.6-.2-.4-.3-.6-.6-.8-.8-.2-.2-.5-.4-.9-.7M138.2 163v-.7c0 .2 0 .5-.1.7M146.1 178.3s.1-.2.1-.3c.3.4.7.7 1 1.1h-.2c-.3-.2-.6-.6-1-.8M142.1 168c0-.3-.3-.6-.3-.7.1-.8.3-1.6.4-2.5v-.8c.1-.2.2-.3.3-.5-.4 2-.5 4.1 0 6.3l-.3-1.8"/><path class="h" d="M176.7 165.2c.2 1.6 0 3.4-.4 5.1-.4 1.7-1 3.3-1.4 4.9 1-1.6 1.8-3.7 2.3-5.6.5-1.8.7-3.3 1.1-3.6.4-.3.6 1.1.3 3-.1.9-.4 2-.7 2.9-.3 1-.7 1.9-1 2.6.2-.4.2-.4.5-.7-.2.4-.5.7-.5 1.1.3-.3.6-.9.9-1.4.3-.5.6-1 .8-1.2v.8c.7-1 1.3-2.5 1.6-4.2.4-1.6.5-3.3.8-4.6-.3 3-.9 6.1-2.1 9.1-1.2 3-3 5.9-5.4 8.3-2.4 2.4-5.4 4.4-8.7 5.5-3.3 1.2-6.9 1.5-10.2 1-7.6-.9-14.2-5.3-18.1-11.4-.3-.6-.8-1.7-1.2-2.9-.4-1.2-.7-2.6-.8-3.8-.8-4.1-.5-8.3.7-12.4 1.4-4.3 4.2-8 7.8-10.7 3.6-2.7 8-4.5 12.7-5 .9-.1 2.1 0 2.4.3.2.1 0 .3-.3.4-.4.1-1.1.2-2.2.4-3.6.7-7.2 2.1-10.2 4.2.1-.2.5-.6 1.1-.9.5-.3 1.1-.6 1.4-.9-1.3.5-2.4 1.2-3.4 1.9s-2 1.5-3 2.5c1.3-1.3 2.7-2.5 4.2-3.5-1.9 1.2-3.8 2.8-5.4 4.7-1.6 1.9-2.9 4-3.8 6.4-.3.8-.8 1.6-1.2 2.5-.4.9-.7 1.9-.6 3.3.6-3.2 1.9-6.3 3.8-9 1.8-2.7 4.2-5 6.9-6.8 2.4-1.6 4.9-2.7 7.6-3.3-.8.2-1.7.5-2.4.7 3.9-1.1 8-1.3 11.9-.5-2.8-.3-5.7-.2-8.5.5-2.8.6-5.5 1.7-7.9 3.3-2.4 1.6-4.5 3.6-6.2 6-1.6 2.4-2.7 5-3.2 7.7.6-1.5 1.1-3.2 1.8-4.7.7-1.6 1.7-3 2.7-3.9-3.1 3.9-4.9 8.8-4.8 14v-1.1c-.3 1.6-.2 3.3.1 4.9.3 1.6.9 3.2 1.5 4.7.1.3.2.5.3.8l-.3-.8c-1.1-2.7-1.7-5.6-1.7-8.5.1 1.3.3 2.7.6 4.3 0-.9-.1-2.2-.1-3.4 0-1.7 0-3.3.3-4.9-.4 2.5-.2 5.1.4 7.2-.4-3.3-.2-6.9 1-10-.5 1.8-.8 3.6-.9 5.4-.2 3.1.2 6.2 1.4 9.1l-.2-.3c0 .2.2.4.3.7.5 1.1 1.1 2.2 1.8 3.3.6.9 1.4 1.7 2.3 2.4l.4.4c-.3-.2-.5-.2 0 .3.9 1.1 2.2 2 3.5 2.8 1.3.8 2.8 1.5 4.3 2.2.8.4 2 .7 3.2.8.3.1.5.1.7 0h2.8-2.8c.2-.1.4-.2.7-.2-2.3-.3-4.6-.9-6.7-1.9-2.1-1-4.1-2.4-5.8-4.1.3.1.6.4.8.4-.4-.3-.8-.5-1.1-.8-1.1-1.1-2-2.3-2.9-3.6.3.4.6.7.9.9-1.2-1.8-2.2-3.8-2.8-5.9-.6-2.1-.9-4.3-.9-6.5.3-4.1 1.9-8.1 4.4-11.2-1.5 1.6-2.7 3.6-3.5 5.8.9-3 2.5-5.8 4.7-8.1s4.9-4 7.9-4.9c-1 .7-2.2 1.6-2.6 2.3.1.1 1.8-.6.9 0-1.6 1.2-3 2.2-3.9 3.2-1 1-1.6 2-1.6 2.9 0 .2.9-.3 1.7-.7.8-.4 1.5-.5 1.1 0-.7.8-1.8 2.2-2.7 4-.3.5-.6 1-.8 1.5v.4c-.7 2-1 4-1.1 5.1v1.2c0 .2-.1.4-.2.6 0 .3.2.5.2.8 0 1.1.2 2.2.5 3.2 0 .6.2 1.2.4 1.8 0 0 .1-.2.2 0 .5 1.3 1.2 2.4 2.1 3.5.3.5.5 1 .7 1.4.8.3 1.7 1.1 2.8 1.9 1.1.8 2.4 1.5 3.5 1.9 1.1.4 2.3.7 3.5.9.2 0 .4.2.5.3.3 0 .6 0 .8-.1 1 .1 1.8.3 2.7.3.1 0 .4-.3.7-.4.6 0 1.3-.2 1.8-.4l2.1-.6c2.3-.8 4.5-2.1 6.3-3.8.1 0 .2 0 .3.1.2-.4.6-.7.8-1v.2c.3-.5.5-.8.7-1 .2-.2.5-.5.8-.9.1-.2.1-.4.2-.7 0 0 .1-.2.2-.3 1-.8 1.3-2 1.7-3.3.5-1.3.8-2.6 1-3.9.1-1.1.4-1.5.6-2.3"/><path class="h" d="M149.5 181.1c1 .7 2 1.3 3.1 1.7-1.2-.4-2.3-.8-3.1-1.7M147.4 154.5c.5-.1.9-.3 1.4-.6-2.3 1.6-4.1 3.8-5.2 6.4.4-1.1 1.2-2.2 2-3.2s1.6-1.9 1.9-2.6M147 179.1h.2-.2M150.6 148h.3c-.8.2-1.6.6-2.3 1.1.6-.4 1.3-.8 2-1.1M159.7 146.9c1.8.1 3.5.5 5.2 1.1 2.1.9 4 2.1 5.4 3.7-2.9-2.5-6.6-4.2-10.6-4.7M152.1 151.9c.6-.1 1.2-.2 1.7-.3-.6.1-1.1.3-1.7.5v-.2M144.6 152l.4-.4c-.3.3-.6.7-.8 1.1 0-.1.3-.5.5-.7M158.2 151.3h-1.3c.2 0 .5-.1.7-.2.1.1.3.2.5.3M164.5 152.7c.5.3 1 .5 1.4.8l-1.8-.9h.4"/></g><g><path class="g" d="M244.3 177.2c-.6-.8-1.4-1.3-2.5-1.7-1-.4-2-.6-3-.6s-1.1 0-1.7.2c-.6.1-1.1.3-1.6.6s-.9.6-1.3 1.1c-.3.5-.5 1-.5 1.6 0 1 .4 1.8 1.2 2.4.8.5 1.7 1 2.9 1.4 1.2.4 2.4.8 3.8 1.2 1.4.4 2.6.9 3.8 1.6 1.2.7 2.1 1.7 2.9 2.8.8 1.2 1.2 2.8 1.2 4.8s-.4 3.6-1.1 5c-.7 1.4-1.7 2.6-2.9 3.5-1.2.9-2.6 1.6-4.2 2.1s-3.3.7-5 .7-4.3-.3-6.2-1c-1.9-.7-3.7-1.8-5.3-3.3l5.4-5.9c.8 1 1.7 1.8 2.9 2.4 1.2.6 2.4.8 3.6.8s1.2 0 1.9-.2c.6-.1 1.2-.4 1.7-.7.5-.3.9-.7 1.2-1.1.3-.4.5-1 .5-1.6 0-1-.4-1.8-1.2-2.4-.8-.6-1.8-1.1-3-1.5-1.2-.4-2.5-.8-3.9-1.3-1.4-.4-2.7-1-3.9-1.7-1.2-.7-2.2-1.6-3-2.8-.8-1.2-1.2-2.7-1.2-4.6s.4-3.4 1.1-4.8c.7-1.4 1.7-2.5 2.9-3.5 1.2-.9 2.6-1.6 4.2-2.1s3.2-.7 4.9-.7 3.8.3 5.6.8c1.8.5 3.4 1.5 4.9 2.8l-5.2 5.6ZM270 187.1c-.4-.5-.9-.9-1.5-1.3-.6-.3-1.3-.5-2.1-.5-1.8 0-3.3.5-4.3 1.6s-1.5 2.5-1.5 4.3.5 3.2 1.5 4.3c1 1.1 2.4 1.6 4.3 1.6s1.5-.2 2.1-.5c.6-.4 1.1-.8 1.5-1.3l4.8 5c-1.1 1.2-2.5 2-4 2.4s-3 .7-4.4.7-3.5-.3-5.1-.9-3-1.4-4.2-2.5c-1.2-1.1-2.1-2.4-2.8-3.9-.7-1.5-1-3.2-1-5.1s.3-3.6 1-5.1c.7-1.5 1.6-2.8 2.8-3.9 1.2-1.1 2.6-1.9 4.2-2.5 1.6-.6 3.3-.9 5.1-.9s2.8.2 4.4.7c1.5.5 2.9 1.3 4 2.4l-4.8 5ZM277.4 179.6h7.2v3.8c.8-1.4 1.7-2.5 2.8-3.3 1.1-.7 2.4-1.1 4-1.1h1.3c.4 0 .8 0 1.2.2v6.6c-.5-.2-1-.3-1.5-.4-.5 0-1-.1-1.6-.1-1.4 0-2.5.2-3.3.6-.8.4-1.4.9-1.9 1.6-.4.7-.7 1.5-.8 2.5-.1 1-.2 2-.2 3.2v9.8h-7.2v-23.5ZM319.6 203h-6.9v-3.2c-.3.5-.6.9-1 1.4-.4.5-.9.9-1.5 1.2-.6.4-1.2.6-2 .9-.7.2-1.5.3-2.4.3-1.8 0-3.3-.3-4.5-.8-1.1-.6-2-1.3-2.7-2.3-.6-1-1-2.2-1.3-3.5s-.3-2.8-.3-4.4v-12.9h7.2v13.6c0 .7.2 1.4.4 2 .2.6.6 1.1 1.1 1.5.5.4 1.2.6 2.1.6s1.7-.2 2.3-.5c.6-.3 1-.8 1.3-1.4.3-.6.5-1.2.6-1.9 0-.7.1-1.4.1-2.2v-11.7h7.2v23.5ZM324.8 179.6h6.9v3.2c.2-.4.5-.9 1-1.4.4-.5.9-.9 1.5-1.2.6-.4 1.2-.6 2-.9.7-.2 1.5-.3 2.4-.3 1.6 0 3.1.3 4.4 1 1.3.7 2.2 1.7 2.9 3.2.8-1.5 1.8-2.6 3-3.2 1.2-.6 2.7-1 4.4-1s2.9.3 4 .8 1.9 1.3 2.6 2.2c.6.9 1.1 2 1.4 3.2.3 1.2.4 2.6.4 4V203h-7.2v-13.7c0-1.1-.2-2-.7-2.8-.5-.8-1.3-1.2-2.5-1.2s-1.5.1-2.1.4c-.6.3-1 .7-1.4 1.1s-.6 1-.7 1.7c-.1.6-.2 1.3-.2 2v12.4h-7.2V189c0-.6-.1-1.2-.3-1.7-.2-.5-.5-1-.9-1.4-.4-.4-1.1-.6-1.9-.6s-1.7.2-2.3.5c-.6.3-1 .8-1.3 1.4-.3.6-.5 1.2-.6 1.9 0 .7-.1 1.4-.1 2.2V203h-7.2v-23.5Z"/></g><g><path class="g" d="M370.9 203.3c-.9 0-1.6-.3-2.2-.9-.6-.6-.9-1.4-.9-2.2s.3-1.6.9-2.2c.6-.6 1.4-.9 2.2-.9s1.6.3 2.2.9.9 1.4.9 2.2-.3 1.6-.9 2.2-1.4.9-2.2.9ZM379.8 191.6c0-1.7.3-3.2.9-4.7.6-1.4 1.5-2.7 2.6-3.8 1.1-1.1 2.4-2 3.9-2.6 1.5-.6 3.1-.9 4.8-.9s3.3.3 4.8.9c1.5.6 2.8 1.5 3.9 2.6s2 2.4 2.6 3.8c.6 1.4.9 3 .9 4.7s-.3 3.2-.9 4.7c-.6 1.5-1.5 2.7-2.6 3.8-1.1 1.1-2.4 1.9-3.9 2.6-1.5.6-3.1.9-4.8.9s-3.3-.3-4.8-.9c-1.5-.6-2.8-1.5-3.9-2.6s-2-2.3-2.6-3.8c-.6-1.5-.9-3-.9-4.7Zm4.6 0c0 1.2.2 2.2.5 3.2.4 1 .9 1.8 1.5 2.5s1.4 1.2 2.4 1.6c.9.4 2 .6 3.1.6s2.2-.2 3.1-.6c.9-.4 1.7-.9 2.4-1.6.6-.7 1.1-1.5 1.5-2.5.4-1 .5-2.1.5-3.2s-.2-2.2-.5-3.2c-.4-1-.9-1.8-1.5-2.5s-1.4-1.2-2.4-1.6c-.9-.4-2-.6-3.1-.6s-2.2.2-3.1.6c-.9.4-1.7.9-2.4 1.6-.6.7-1.1 1.5-1.5 2.5-.4 1-.5 2.1-.5 3.2ZM409.5 180.1h4.3v3.5c.3-.6.7-1.2 1.2-1.7s1-.9 1.6-1.3c.6-.4 1.2-.6 2-.8.7-.2 1.4-.3 2.1-.3s1.3 0 1.9.3l-.2 4.7c-.4 0-.7-.2-1.1-.2h-1.1c-2.1 0-3.7.6-4.9 1.8-1.1 1.2-1.7 3-1.7 5.5v11.5h-4.3v-22.9Z"/></g><path class="g" d="M449.4 202.8c0 1.7-.3 3.3-.9 4.8-.6 1.4-1.4 2.7-2.5 3.7s-2.4 1.9-4 2.4c-1.5.6-3.2.9-5.1.9s-4.2-.3-6-.9c-1.8-.6-3.5-1.7-5.2-3.2l2.9-3.7c1.1 1.2 2.3 2.1 3.7 2.8 1.3.6 2.8.9 4.5.9s2.9-.2 4-.7c1.1-.5 1.9-1.1 2.5-1.8.6-.7 1.1-1.6 1.3-2.5.3-.9.4-1.9.4-2.9v-3.4h-.1c-.8 1.4-2 2.4-3.4 3.1-1.4.7-2.9 1-4.5 1s-3.2-.3-4.7-.9c-1.4-.6-2.7-1.4-3.7-2.5-1-1-1.8-2.3-2.4-3.7-.6-1.4-.9-3-.9-4.7s.3-3.2.8-4.7 1.3-2.7 2.3-3.8c1-1.1 2.2-1.9 3.7-2.6 1.4-.6 3-.9 4.8-.9s3 .3 4.5 1 2.6 1.6 3.4 2.8V180h4.3v22.7Zm-11.9-19.2c-1.2 0-2.2.2-3.1.6-.9.4-1.7.9-2.4 1.6-.6.7-1.1 1.5-1.5 2.5-.4 1-.5 2.1-.5 3.2 0 2.3.7 4.2 2 5.6 1.3 1.4 3.2 2.1 5.5 2.1s4.2-.7 5.5-2.1c1.4-1.4 2-3.3 2-5.6s-.2-2.2-.5-3.2c-.4-1-.9-1.8-1.5-2.5s-1.4-1.2-2.4-1.6c-.9-.4-2-.6-3.1-.6ZM457 175.3h1.7l1.2 3.2 1.2-3.2h1.7v4.8h-1.3v-3.2l-1.2 3.2h-.8l-1.2-3.2v3.2H457v-4.8Zm-3.7 1.1h-1.4v-1.1h4.1v1.1h-1.4v3.7h-1.3v-3.7Z"/></g><script xmlns=""/></svg>